
M48
INCH,LZ
T01C0.01
T02C0.013
T03C0.028
T04C0.042
T05C0.044
T06C0.05
T07C0.067
T08C0.064
T09C0.156
T10C0.07
T11C0.125
%
T01
X032522Y0765
X032272Y0765
X032522Y07675
X032272Y07675
X032522Y0745
X032522Y07475
X032522Y075
X032522Y07525
X032272Y07525
X032272Y075
X032272Y07475
X032272Y0745
X032272Y0755
X032522Y0755
X032522Y07575
X032272Y07575
X032272Y076
X032522Y076
X032522Y07625
X032272Y07625
X029522Y07675
X031522Y0765
X031272Y0765
X031022Y0765
X030772Y0765
X030522Y0765
X030272Y0765
X030022Y0765
X029772Y0765
X029522Y0765
X031522Y07675
X031272Y07675
X031022Y07675
X030772Y07675
X030522Y07675
X030272Y07675
X029772Y07675
X030022Y07675
X032022Y0765
X031772Y0765
X032022Y07675
X031772Y07675
X031522Y0745
X031522Y07475
X031522Y075
X031522Y07525
X031522Y0755
X031522Y07575
X031272Y07575
X031272Y0755
X031272Y07525
X031272Y075
X031272Y07475
X031272Y0745
X031022Y0745
X031022Y07475
X031022Y075
X031022Y07525
X031022Y0755
X031022Y07575
X030772Y07575
X030772Y0755
X030772Y07525
X030772Y075
X030772Y07475
X030772Y0745
X030522Y0745
X030522Y07475
X030522Y075
X030522Y07525
X030522Y0755
X030522Y07575
X030272Y07575
X030272Y0755
X030272Y07525
X030272Y075
X030272Y07475
X030272Y0745
X030022Y0745
X030022Y07475
X030022Y075
X030022Y07525
X030022Y0755
X030022Y07575
X029772Y0745
X029772Y07475
X029772Y075
X029772Y07525
X029772Y0755
X029772Y07575
X029522Y0745
X029522Y07475
X029522Y075
X029522Y07525
X029522Y0755
X029522Y07575
X031022Y076
X031272Y076
X031522Y076
X031522Y07625
X031272Y07625
X031022Y07625
X030772Y07625
X030772Y076
X030522Y076
X030522Y07625
X030272Y07625
X030272Y076
X030022Y076
X030022Y07625
X029772Y076
X029772Y07625
X029522Y076
X029522Y07625
X032022Y0745
X032022Y07475
X032022Y075
X032022Y07525
X031772Y07525
X031772Y075
X031772Y07475
X031772Y0745
X031772Y0755
X032022Y0755
X032022Y07575
X031772Y07575
X031772Y076
X032022Y076
X032022Y07625
X031772Y07625
X018875Y05625
X010327Y066423
X047375Y066625
X0155Y057375
X024125Y055875
X01025Y07025
X01025Y0695
X01025Y07
X01025Y06975
X01Y07025
X01Y0695
X01Y06975
X01Y07
X012Y07
X012Y0695
X012Y06975
X01175Y07025
X0115Y07025
X012Y07025
X01125Y07025
X0105Y07025
X01075Y07025
X011Y07025
X01125Y0695
X0105Y0695
X01075Y0695
X011Y0695
X01125Y07
X01125Y06975
X0105Y06975
X0105Y07
X01075Y07
X011Y07
X01075Y06975
X011Y06975
X0115Y0695
X01175Y0695
X0115Y07
X01175Y07
X0115Y06975
X01175Y06975
X01Y0705
X01025Y0705
X0105Y0705
X01075Y0705
X011Y0705
X01125Y0705
X0115Y0705
X01175Y0705
X012Y0705
X0195Y06075
X031Y074
X04775Y07
X04775Y06975
X04775Y0695
X04775Y07025
X04725Y07
X04725Y06975
X04725Y0695
X04725Y07025
X0475Y06975
X0475Y07
X0475Y0695
X0475Y07025
X04925Y06975
X049Y06975
X04875Y06975
X04925Y07
X049Y07
X04875Y07
X04925Y0695
X049Y0695
X04875Y0695
X04825Y06975
X048Y06975
X04825Y07
X048Y07
X0485Y06975
X0485Y07
X04825Y0695
X048Y0695
X0485Y0695
X04825Y07025
X048Y07025
X0485Y07025
X04925Y07025
X04875Y07025
X049Y07025
X04775Y0705
X0475Y0705
X04725Y0705
X04925Y0705
X049Y0705
X04875Y0705
X0485Y0705
X04825Y0705
X048Y0705
X0095Y0585
X086022Y0765
X085772Y0765
X086022Y07675
X085772Y07675
X086022Y0745
X086022Y07475
X086022Y075
X086022Y07525
X085772Y07525
X085772Y075
X085772Y07475
X085772Y0745
X085772Y0755
X086022Y0755
X086022Y07575
X085772Y07575
X085772Y076
X086022Y076
X086022Y07625
X085772Y07625
X083022Y07675
X085022Y0765
X084772Y0765
X084522Y0765
X084272Y0765
X084022Y0765
X083772Y0765
X083522Y0765
X083272Y0765
X083022Y0765
X085022Y07675
X084772Y07675
X084522Y07675
X084272Y07675
X084022Y07675
X083772Y07675
X083272Y07675
X083522Y07675
X085522Y0765
X085272Y0765
X085522Y07675
X085272Y07675
X085022Y0745
X085022Y07475
X085022Y075
X085022Y07525
X085022Y0755
X085022Y07575
X084772Y07575
X084772Y0755
X084772Y07525
X084772Y075
X084772Y07475
X084772Y0745
X084522Y0745
X084522Y07475
X084522Y075
X084522Y07525
X084522Y0755
X084522Y07575
X084272Y07575
X084272Y0755
X084272Y07525
X084272Y075
X084272Y07475
X084272Y0745
X084022Y0745
X084022Y07475
X084022Y075
X084022Y07525
X084022Y0755
X084022Y07575
X083772Y07575
X083772Y0755
X083772Y07525
X083772Y075
X083772Y07475
X083772Y0745
X083522Y0745
X083522Y07475
X083522Y075
X083522Y07525
X083522Y0755
X083522Y07575
X083272Y0745
X083272Y07475
X083272Y075
X083272Y07525
X083272Y0755
X083272Y07575
X083022Y0745
X083022Y07475
X083022Y075
X083022Y07525
X083022Y0755
X083022Y07575
X084522Y076
X084772Y076
X085022Y076
X085022Y07625
X084772Y07625
X084522Y07625
X084272Y07625
X084272Y076
X084022Y076
X084022Y07625
X083772Y07625
X083772Y076
X083522Y076
X083522Y07625
X083272Y076
X083272Y07625
X083022Y076
X083022Y07625
X085522Y0745
X085522Y07475
X085522Y075
X085522Y07525
X085272Y07525
X085272Y075
X085272Y07475
X085272Y0745
X085272Y0755
X085522Y0755
X085522Y07575
X085272Y07575
X085272Y076
X085522Y076
X085522Y07625
X085272Y07625
X072375Y05625
X063827Y066423
X100875Y066625
X069Y057375
X077625Y055875
X06375Y07025
X06375Y0695
X06375Y07
X06375Y06975
X0635Y07025
X0635Y0695
X0635Y06975
X0635Y07
X0655Y07
X0655Y0695
X0655Y06975
X06525Y07025
X065Y07025
X0655Y07025
X06475Y07025
X064Y07025
X06425Y07025
X0645Y07025
X06475Y0695
X064Y0695
X06425Y0695
X0645Y0695
X06475Y07
X06475Y06975
X064Y06975
X064Y07
X06425Y07
X0645Y07
X06425Y06975
X0645Y06975
X065Y0695
X06525Y0695
X065Y07
X06525Y07
X065Y06975
X06525Y06975
X0635Y0705
X06375Y0705
X064Y0705
X06425Y0705
X0645Y0705
X06475Y0705
X065Y0705
X06525Y0705
X0655Y0705
X073Y06075
X0845Y074
X10125Y07
X10125Y06975
X10125Y0695
X10125Y07025
X10075Y07
X10075Y06975
X10075Y0695
X10075Y07025
X101Y06975
X101Y07
X101Y0695
X101Y07025
X10275Y06975
X1025Y06975
X10225Y06975
X10275Y07
X1025Y07
X10225Y07
X10275Y0695
X1025Y0695
X10225Y0695
X10175Y06975
X1015Y06975
X10175Y07
X1015Y07
X102Y06975
X102Y07
X10175Y0695
X1015Y0695
X102Y0695
X10175Y07025
X1015Y07025
X102Y07025
X10275Y07025
X10225Y07025
X1025Y07025
X10125Y0705
X101Y0705
X10075Y0705
X10275Y0705
X1025Y0705
X10225Y0705
X102Y0705
X10175Y0705
X1015Y0705
X063Y0585
X086022Y0365
X085772Y0365
X086022Y03675
X085772Y03675
X086022Y0345
X086022Y03475
X086022Y035
X086022Y03525
X085772Y03525
X085772Y035
X085772Y03475
X085772Y0345
X085772Y0355
X086022Y0355
X086022Y03575
X085772Y03575
X085772Y036
X086022Y036
X086022Y03625
X085772Y03625
X083022Y03675
X085022Y0365
X084772Y0365
X084522Y0365
X084272Y0365
X084022Y0365
X083772Y0365
X083522Y0365
X083272Y0365
X083022Y0365
X085022Y03675
X084772Y03675
X084522Y03675
X084272Y03675
X084022Y03675
X083772Y03675
X083272Y03675
X083522Y03675
X085522Y0365
X085272Y0365
X085522Y03675
X085272Y03675
X085022Y0345
X085022Y03475
X085022Y035
X085022Y03525
X085022Y0355
X085022Y03575
X084772Y03575
X084772Y0355
X084772Y03525
X084772Y035
X084772Y03475
X084772Y0345
X084522Y0345
X084522Y03475
X084522Y035
X084522Y03525
X084522Y0355
X084522Y03575
X084272Y03575
X084272Y0355
X084272Y03525
X084272Y035
X084272Y03475
X084272Y0345
X084022Y0345
X084022Y03475
X084022Y035
X084022Y03525
X084022Y0355
X084022Y03575
X083772Y03575
X083772Y0355
X083772Y03525
X083772Y035
X083772Y03475
X083772Y0345
X083522Y0345
X083522Y03475
X083522Y035
X083522Y03525
X083522Y0355
X083522Y03575
X083272Y0345
X083272Y03475
X083272Y035
X083272Y03525
X083272Y0355
X083272Y03575
X083022Y0345
X083022Y03475
X083022Y035
X083022Y03525
X083022Y0355
X083022Y03575
X084522Y036
X084772Y036
X085022Y036
X085022Y03625
X084772Y03625
X084522Y03625
X084272Y03625
X084272Y036
X084022Y036
X084022Y03625
X083772Y03625
X083772Y036
X083522Y036
X083522Y03625
X083272Y036
X083272Y03625
X083022Y036
X083022Y03625
X085522Y0345
X085522Y03475
X085522Y035
X085522Y03525
X085272Y03525
X085272Y035
X085272Y03475
X085272Y0345
X085272Y0355
X085522Y0355
X085522Y03575
X085272Y03575
X085272Y036
X085522Y036
X085522Y03625
X085272Y03625
X072375Y01625
X063827Y026423
X100875Y026625
X069Y017375
X077625Y015875
X06375Y03025
X06375Y0295
X06375Y03
X06375Y02975
X0635Y03025
X0635Y0295
X0635Y02975
X0635Y03
X0655Y03
X0655Y0295
X0655Y02975
X06525Y03025
X065Y03025
X0655Y03025
X06475Y03025
X064Y03025
X06425Y03025
X0645Y03025
X06475Y0295
X064Y0295
X06425Y0295
X0645Y0295
X06475Y03
X06475Y02975
X064Y02975
X064Y03
X06425Y03
X0645Y03
X06425Y02975
X0645Y02975
X065Y0295
X06525Y0295
X065Y03
X06525Y03
X065Y02975
X06525Y02975
X0635Y0305
X06375Y0305
X064Y0305
X06425Y0305
X0645Y0305
X06475Y0305
X065Y0305
X06525Y0305
X0655Y0305
X073Y02075
X0845Y034
X10125Y03
X10125Y02975
X10125Y0295
X10125Y03025
X10075Y03
X10075Y02975
X10075Y0295
X10075Y03025
X101Y02975
X101Y03
X101Y0295
X101Y03025
X10275Y02975
X1025Y02975
X10225Y02975
X10275Y03
X1025Y03
X10225Y03
X10275Y0295
X1025Y0295
X10225Y0295
X10175Y02975
X1015Y02975
X10175Y03
X1015Y03
X102Y02975
X102Y03
X10175Y0295
X1015Y0295
X102Y0295
X10175Y03025
X1015Y03025
X102Y03025
X10275Y03025
X10225Y03025
X1025Y03025
X10125Y0305
X101Y0305
X10075Y0305
X10275Y0305
X1025Y0305
X10225Y0305
X102Y0305
X10175Y0305
X1015Y0305
X063Y0185
X032522Y0365
X032272Y0365
X032522Y03675
X032272Y03675
X032522Y0345
X032522Y03475
X032522Y035
X032522Y03525
X032272Y03525
X032272Y035
X032272Y03475
X032272Y0345
X032272Y0355
X032522Y0355
X032522Y03575
X032272Y03575
X032272Y036
X032522Y036
X032522Y03625
X032272Y03625
X029522Y03675
X031522Y0365
X031272Y0365
X031022Y0365
X030772Y0365
X030522Y0365
X030272Y0365
X030022Y0365
X029772Y0365
X029522Y0365
X031522Y03675
X031272Y03675
X031022Y03675
X030772Y03675
X030522Y03675
X030272Y03675
X029772Y03675
X030022Y03675
X032022Y0365
X031772Y0365
X032022Y03675
X031772Y03675
X031522Y0345
X031522Y03475
X031522Y035
X031522Y03525
X031522Y0355
X031522Y03575
X031272Y03575
X031272Y0355
X031272Y03525
X031272Y035
X031272Y03475
X031272Y0345
X031022Y0345
X031022Y03475
X031022Y035
X031022Y03525
X031022Y0355
X031022Y03575
X030772Y03575
X030772Y0355
X030772Y03525
X030772Y035
X030772Y03475
X030772Y0345
X030522Y0345
X030522Y03475
X030522Y035
X030522Y03525
X030522Y0355
X030522Y03575
X030272Y03575
X030272Y0355
X030272Y03525
X030272Y035
X030272Y03475
X030272Y0345
X030022Y0345
X030022Y03475
X030022Y035
X030022Y03525
X030022Y0355
X030022Y03575
X029772Y0345
X029772Y03475
X029772Y035
X029772Y03525
X029772Y0355
X029772Y03575
X029522Y0345
X029522Y03475
X029522Y035
X029522Y03525
X029522Y0355
X029522Y03575
X031022Y036
X031272Y036
X031522Y036
X031522Y03625
X031272Y03625
X031022Y03625
X030772Y03625
X030772Y036
X030522Y036
X030522Y03625
X030272Y03625
X030272Y036
X030022Y036
X030022Y03625
X029772Y036
X029772Y03625
X029522Y036
X029522Y03625
X032022Y0345
X032022Y03475
X032022Y035
X032022Y03525
X031772Y03525
X031772Y035
X031772Y03475
X031772Y0345
X031772Y0355
X032022Y0355
X032022Y03575
X031772Y03575
X031772Y036
X032022Y036
X032022Y03625
X031772Y03625
X018875Y01625
X010327Y026423
X047375Y026625
X0155Y017375
X024125Y015875
X01025Y03025
X01025Y0295
X01025Y03
X01025Y02975
X01Y03025
X01Y0295
X01Y02975
X01Y03
X012Y03
X012Y0295
X012Y02975
X01175Y03025
X0115Y03025
X012Y03025
X01125Y03025
X0105Y03025
X01075Y03025
X011Y03025
X01125Y0295
X0105Y0295
X01075Y0295
X011Y0295
X01125Y03
X01125Y02975
X0105Y02975
X0105Y03
X01075Y03
X011Y03
X01075Y02975
X011Y02975
X0115Y0295
X01175Y0295
X0115Y03
X01175Y03
X0115Y02975
X01175Y02975
X01Y0305
X01025Y0305
X0105Y0305
X01075Y0305
X011Y0305
X01125Y0305
X0115Y0305
X01175Y0305
X012Y0305
X0195Y02075
X031Y034
X04775Y03
X04775Y02975
X04775Y0295
X04775Y03025
X04725Y03
X04725Y02975
X04725Y0295
X04725Y03025
X0475Y02975
X0475Y03
X0475Y0295
X0475Y03025
X04925Y02975
X049Y02975
X04875Y02975
X04925Y03
X049Y03
X04875Y03
X04925Y0295
X049Y0295
X04875Y0295
X04825Y02975
X048Y02975
X04825Y03
X048Y03
X0485Y02975
X0485Y03
X04825Y0295
X048Y0295
X0485Y0295
X04825Y03025
X048Y03025
X0485Y03025
X04925Y03025
X04875Y03025
X049Y03025
X04775Y0305
X0475Y0305
X04725Y0305
X04925Y0305
X049Y0305
X04875Y0305
X0485Y0305
X04825Y0305
X048Y0305
X0095Y0185
T02
X010104Y06572
X010057Y067567
X029646Y072833
X028254Y0775
X012436Y067828
X008375Y077625
X009624Y080191
X011954Y068169
X021875Y0515
X008409Y051
X022375Y0575
X026909Y0695
X008409Y05275
X008409Y04925
X008409Y0475
X004659Y0485
X0205Y061327
X02Y056375
X042625Y0435
X042625Y045875
X042625Y04825
X042625Y050625
X020875Y057875
X008949Y05405
X0095Y059347
X009613Y059887
X01925Y051625
X025Y048625
X020375Y054625
X020125Y04675
X01479Y061023
X014997Y07775
X014997Y071125
X025625Y045375
X019125Y054
X026Y055125
X04217Y053495
X042094Y049875
X013125Y07175
X013828Y0596
X013152Y060972
X012592Y072362
X018463Y05529
X018499Y06025
X018445Y057875
X04225Y045125
X041Y054781
X041625Y05425
X048309Y06319
X048309Y06475
X050625Y07675
X048332Y072315
X048081Y073783
X048125Y0665
X014332Y059954
X014552Y073028
X02425Y053499
X021735Y059625
X046327Y067848
X04761Y067875
X050732Y065625
X050625Y072625
X024155Y059
X0255Y058375
X04693Y068048
X04675Y059875
X050553Y071875
X022875Y05225
X04925Y081147
X025125Y0535
X025125Y049625
X0235Y056025
X013225Y066375
X012625Y066375
X016425Y072075
X021Y057125
X024125Y060125
X021Y060875
X02025Y060875
X026375Y080375
X027125Y073625
X032375Y07075
X031625Y07075
X05225Y056125
X02675Y053625
X009Y063625
X019625Y063625
X045625Y063375
X049Y079125
X040375Y079125
X018625Y079
X008125Y079
X0125Y075625
X0125Y077875
X05Y066875
X051625Y064125
X051625Y065625
X051625Y064875
X032375Y08
X033625Y08175
X032375Y08175
X031875Y08125
X031875Y0805
X01319Y061512
X009299Y059
X009169Y060875
X00925Y055375
X015973Y067
X021103Y05275
X047866Y071741
X011384Y068
X050292Y071154
X0105Y056125
X043159Y0685
X042909Y07375
X030909Y0695
X008051Y060396
X013094Y07275
X013802Y06014
X014112Y060511
X013625Y073375
X017001Y0595
X01036Y072375
X01036Y068094
X035266Y07775
X03475Y07775
X03475Y07925
X0167Y07353
X041Y07325
X01025Y04925
X0145Y075
X01325Y063
X01488Y06023
X00825Y0585
X00976Y06046
X006Y06
X00866Y06896
X01225Y07175
X00928Y058
X00877Y06028
X0445Y072
X0093Y05692
X0127Y0747
X01265Y07005
X05475Y0515
X05375Y0515
X05475Y0495
X05375Y0495
X05325Y04975
X05325Y051
X05525Y051
X05525Y04975
X02925Y078
X03Y078
X03075Y078
X0315Y078
X03325Y0765
X03325Y07575
X03325Y075
X02875Y075
X02875Y07575
X02875Y0765
X034Y08125
X034Y0805
X0335Y08
X044Y07675
X00775Y0755
X0395Y06375
X02675Y0435
X05225Y0435
X031Y07075
X0305Y0795
X023Y06125
X014Y05775
X0494Y0679
X02421Y05669
X05Y06425
X03975Y0719
X01652Y0625
X048Y068
X0485Y05775
X04666Y0584
X04605Y05997
X045Y0685
X02175Y0606
X01438Y06129
X05093Y06284
X042Y0475
X0497Y06831
X04825Y08075
X026Y05375
X01425Y0595
X02275Y0435
X02275Y045
X02275Y04625
X02275Y0475
X02275Y04875
X02275Y05
X01377Y0607
X0145Y07375
X01426Y06875
X02275Y079
X016Y05825
X016Y05347
X00835Y073
X0075Y06125
X01091Y07409
X01125Y06625
X01275Y0695
X01525Y06975
X01125Y06347
X063604Y06572
X063557Y067567
X083146Y072833
X081754Y0775
X065936Y067828
X061875Y077625
X063124Y080191
X065454Y068169
X075375Y0515
X061909Y051
X075875Y0575
X080409Y0695
X061909Y05275
X061909Y04925
X061909Y0475
X058159Y0485
X074Y061327
X0735Y056375
X096125Y0435
X096125Y045875
X096125Y04825
X096125Y050625
X074375Y057875
X062449Y05405
X063Y059347
X063113Y059887
X07275Y051625
X0785Y048625
X073875Y054625
X073625Y04675
X06829Y061023
X068497Y07775
X068497Y071125
X079125Y045375
X072625Y054
X0795Y055125
X09567Y053495
X095594Y049875
X066625Y07175
X067328Y0596
X066652Y060972
X066092Y072362
X071963Y05529
X071999Y06025
X071945Y057875
X09575Y045125
X0945Y054781
X095125Y05425
X101809Y06319
X101809Y06475
X104125Y07675
X101832Y072315
X101581Y073783
X101625Y0665
X067832Y059954
X068052Y073028
X07775Y053499
X075235Y059625
X099827Y067848
X10111Y067875
X104232Y065625
X104125Y072625
X077655Y059
X079Y058375
X10043Y068048
X10025Y059875
X104053Y071875
X076375Y05225
X10275Y081147
X078625Y0535
X078625Y049625
X077Y056025
X066725Y066375
X066125Y066375
X069925Y072075
X0745Y057125
X077625Y060125
X0745Y060875
X07375Y060875
X079875Y080375
X080625Y073625
X085875Y07075
X085125Y07075
X10575Y056125
X08025Y053625
X0625Y063625
X073125Y063625
X099125Y063375
X1025Y079125
X093875Y079125
X072125Y079
X061625Y079
X066Y075625
X066Y077875
X1035Y066875
X105125Y064125
X105125Y065625
X105125Y064875
X085875Y08
X087125Y08175
X085875Y08175
X085375Y08125
X085375Y0805
X06669Y061512
X062799Y059
X062669Y060875
X06275Y055375
X069473Y067
X074603Y05275
X101366Y071741
X064884Y068
X103792Y071154
X064Y056125
X096659Y0685
X096409Y07375
X084409Y0695
X061551Y060396
X066594Y07275
X067302Y06014
X067612Y060511
X067125Y073375
X070501Y0595
X06386Y072375
X06386Y068094
X088766Y07775
X08825Y07775
X08825Y07925
X0702Y07353
X0945Y07325
X06375Y04925
X068Y075
X06675Y063
X06838Y06023
X06175Y0585
X06326Y06046
X0595Y06
X06216Y06896
X06575Y07175
X06278Y058
X06227Y06028
X098Y072
X0628Y05692
X0662Y0747
X06615Y07005
X10825Y0515
X10725Y0515
X10825Y0495
X10725Y0495
X10675Y04975
X10675Y051
X10875Y051
X10875Y04975
X08275Y078
X0835Y078
X08425Y078
X085Y078
X08675Y0765
X08675Y07575
X08675Y075
X08225Y075
X08225Y07575
X08225Y0765
X0875Y08125
X0875Y0805
X087Y08
X0975Y07675
X06125Y0755
X093Y06375
X08025Y0435
X10575Y0435
X0845Y07075
X084Y0795
X0765Y06125
X0675Y05775
X1029Y0679
X07771Y05669
X1035Y06425
X09325Y0719
X07002Y0625
X1015Y068
X102Y05775
X10016Y0584
X09955Y05997
X0985Y0685
X07525Y0606
X06788Y06129
X10443Y06284
X0955Y0475
X1032Y06831
X10175Y08075
X0795Y05375
X06775Y0595
X07625Y0435
X07625Y045
X07625Y04625
X07625Y0475
X07625Y04875
X07625Y05
X06727Y0607
X068Y07375
X06776Y06875
X07625Y079
X0695Y05825
X0695Y05347
X06185Y073
X061Y06125
X06441Y07409
X06475Y06625
X06625Y0695
X06875Y06975
X06475Y06347
X063604Y02572
X063557Y027567
X083146Y032833
X081754Y0375
X065936Y027828
X061875Y037625
X063124Y040191
X065454Y028169
X075375Y0115
X061909Y011
X075875Y0175
X080409Y0295
X061909Y01275
X061909Y00925
X061909Y0075
X058159Y0085
X074Y021327
X0735Y016375
X096125Y0035
X096125Y005875
X096125Y00825
X096125Y010625
X074375Y017875
X062449Y01405
X063Y019347
X063113Y019887
X07275Y011625
X0785Y008625
X073875Y014625
X073625Y00675
X06829Y021023
X068497Y03775
X068497Y031125
X079125Y005375
X072625Y014
X0795Y015125
X09567Y013495
X095594Y009875
X066625Y03175
X067328Y0196
X066652Y020972
X066092Y032362
X071963Y01529
X071999Y02025
X071945Y017875
X09575Y005125
X0945Y014781
X095125Y01425
X101809Y02319
X101809Y02475
X104125Y03675
X101832Y032315
X101581Y033783
X101625Y0265
X067832Y019954
X068052Y033028
X07775Y013499
X075235Y019625
X099827Y027848
X10111Y027875
X104232Y025625
X104125Y032625
X077655Y019
X079Y018375
X10043Y028048
X10025Y019875
X104053Y031875
X076375Y01225
X10275Y041147
X078625Y0135
X078625Y009625
X077Y016025
X066725Y026375
X066125Y026375
X069925Y032075
X0745Y017125
X077625Y020125
X0745Y020875
X07375Y020875
X079875Y040375
X080625Y033625
X085875Y03075
X085125Y03075
X10575Y016125
X08025Y013625
X0625Y023625
X073125Y023625
X099125Y023375
X1025Y039125
X093875Y039125
X072125Y039
X061625Y039
X066Y035625
X066Y037875
X1035Y026875
X105125Y024125
X105125Y025625
X105125Y024875
X085875Y04
X087125Y04175
X085875Y04175
X085375Y04125
X085375Y0405
X06669Y021512
X062799Y019
X062669Y020875
X06275Y015375
X069473Y027
X074603Y01275
X101366Y031741
X064884Y028
X103792Y031154
X064Y016125
X096659Y0285
X096409Y03375
X084409Y0295
X061551Y020396
X066594Y03275
X067302Y02014
X067612Y020511
X067125Y033375
X070501Y0195
X06386Y032375
X06386Y028094
X088766Y03775
X08825Y03775
X08825Y03925
X0702Y03353
X0945Y03325
X06375Y00925
X068Y035
X06675Y023
X06838Y02023
X06175Y0185
X06326Y02046
X0595Y02
X06216Y02896
X06575Y03175
X06278Y018
X06227Y02028
X098Y032
X0628Y01692
X0662Y0347
X06615Y03005
X10825Y0115
X10725Y0115
X10825Y0095
X10725Y0095
X10675Y00975
X10675Y011
X10875Y011
X10875Y00975
X08275Y038
X0835Y038
X08425Y038
X085Y038
X08675Y0365
X08675Y03575
X08675Y035
X08225Y035
X08225Y03575
X08225Y0365
X0875Y04125
X0875Y0405
X087Y04
X0975Y03675
X06125Y0355
X093Y02375
X08025Y0035
X10575Y0035
X0845Y03075
X084Y0395
X0765Y02125
X0675Y01775
X1029Y0279
X07771Y01669
X1035Y02425
X09325Y0319
X07002Y0225
X1015Y028
X102Y01775
X10016Y0184
X09955Y01997
X0985Y0285
X07525Y0206
X06788Y02129
X10443Y02284
X0955Y0075
X1032Y02831
X10175Y04075
X0795Y01375
X06775Y0195
X07625Y0035
X07625Y005
X07625Y00625
X07625Y0075
X07625Y00875
X07625Y01
X06727Y0207
X068Y03375
X06776Y02875
X07625Y039
X0695Y01825
X0695Y01347
X06185Y033
X061Y02125
X06441Y03409
X06475Y02625
X06625Y0295
X06875Y02975
X06475Y02347
X010104Y02572
X010057Y027567
X029646Y032833
X028254Y0375
X012436Y027828
X008375Y037625
X009624Y040191
X011954Y028169
X021875Y0115
X008409Y011
X022375Y0175
X026909Y0295
X008409Y01275
X008409Y00925
X008409Y0075
X004659Y0085
X0205Y021327
X02Y016375
X042625Y0035
X042625Y005875
X042625Y00825
X042625Y010625
X020875Y017875
X008949Y01405
X0095Y019347
X009613Y019887
X01925Y011625
X025Y008625
X020375Y014625
X020125Y00675
X01479Y021023
X014997Y03775
X014997Y031125
X025625Y005375
X019125Y014
X026Y015125
X04217Y013495
X042094Y009875
X013125Y03175
X013828Y0196
X013152Y020972
X012592Y032362
X018463Y01529
X018499Y02025
X018445Y017875
X04225Y005125
X041Y014781
X041625Y01425
X048309Y02319
X048309Y02475
X050625Y03675
X048332Y032315
X048081Y033783
X048125Y0265
X014332Y019954
X014552Y033028
X02425Y013499
X021735Y019625
X046327Y027848
X04761Y027875
X050732Y025625
X050625Y032625
X024155Y019
X0255Y018375
X04693Y028048
X04675Y019875
X050553Y031875
X022875Y01225
X04925Y041147
X025125Y0135
X025125Y009625
X0235Y016025
X013225Y026375
X012625Y026375
X016425Y032075
X021Y017125
X024125Y020125
X021Y020875
X02025Y020875
X026375Y040375
X027125Y033625
X032375Y03075
X031625Y03075
X05225Y016125
X02675Y013625
X009Y023625
X019625Y023625
X045625Y023375
X049Y039125
X040375Y039125
X018625Y039
X008125Y039
X0125Y035625
X0125Y037875
X05Y026875
X051625Y024125
X051625Y025625
X051625Y024875
X032375Y04
X033625Y04175
X032375Y04175
X031875Y04125
X031875Y0405
X01319Y021512
X009299Y019
X009169Y020875
X00925Y015375
X015973Y027
X021103Y01275
X047866Y031741
X011384Y028
X050292Y031154
X0105Y016125
X043159Y0285
X042909Y03375
X030909Y0295
X008051Y020396
X013094Y03275
X013802Y02014
X014112Y020511
X013625Y033375
X017001Y0195
X01036Y032375
X01036Y028094
X035266Y03775
X03475Y03775
X03475Y03925
X0167Y03353
X041Y03325
X01025Y00925
X0145Y035
X01325Y023
X01488Y02023
X00825Y0185
X00976Y02046
X006Y02
X00866Y02896
X01225Y03175
X00928Y018
X00877Y02028
X0445Y032
X0093Y01692
X0127Y0347
X01265Y03005
X05475Y0115
X05375Y0115
X05475Y0095
X05375Y0095
X05325Y00975
X05325Y011
X05525Y011
X05525Y00975
X02925Y038
X03Y038
X03075Y038
X0315Y038
X03325Y0365
X03325Y03575
X03325Y035
X02875Y035
X02875Y03575
X02875Y0365
X034Y04125
X034Y0405
X0335Y04
X044Y03675
X00775Y0355
X0395Y02375
X02675Y0035
X05225Y0035
X031Y03075
X0305Y0395
X023Y02125
X014Y01775
X0494Y0279
X02421Y01669
X05Y02425
X03975Y0319
X01652Y0225
X048Y028
X0485Y01775
X04666Y0184
X04605Y01997
X045Y0285
X02175Y0206
X01438Y02129
X05093Y02284
X042Y0075
X0497Y02831
X04825Y04075
X026Y01375
X01425Y0195
X02275Y0035
X02275Y005
X02275Y00625
X02275Y0075
X02275Y00875
X02275Y01
X01377Y0207
X0145Y03375
X01426Y02875
X02275Y039
X016Y01825
X016Y01347
X00835Y033
X0075Y02125
X01091Y03409
X01125Y02625
X01275Y0295
X01525Y02975
X01125Y02347
T03
X0205Y067
X0195Y068
X0185Y067
X0205Y07225
X0195Y07325
X0185Y07225
X0275Y06325
X0275Y06225
X0275Y06125
X0285Y06125
X0285Y06225
X0285Y06325
X04075Y067
X03975Y068
X03875Y067
X04075Y07225
X03975Y07325
X03875Y07225
X074Y067
X073Y068
X072Y067
X074Y07225
X073Y07325
X072Y07225
X081Y06325
X081Y06225
X081Y06125
X082Y06125
X082Y06225
X082Y06325
X09425Y067
X09325Y068
X09225Y067
X09425Y07225
X09325Y07325
X09225Y07225
X074Y027
X073Y028
X072Y027
X074Y03225
X073Y03325
X072Y03225
X081Y02325
X081Y02225
X081Y02125
X082Y02125
X082Y02225
X082Y02325
X09425Y027
X09325Y028
X09225Y027
X09425Y03225
X09325Y03325
X09225Y03225
X0205Y027
X0195Y028
X0185Y027
X0205Y03225
X0195Y03325
X0185Y03225
X0275Y02325
X0275Y02225
X0275Y02125
X0285Y02125
X0285Y02225
X0285Y02325
X04075Y027
X03975Y028
X03875Y027
X04075Y03225
X03975Y03325
X03875Y03225
T04
X017Y04425
X016Y04425
X015Y04425
X0165Y05225
X0145Y05225
X0125Y05225
X0705Y04425
X0695Y04425
X0685Y04425
X07Y05225
X068Y05225
X066Y05225
X0705Y00425
X0695Y00425
X0685Y00425
X07Y01225
X068Y01225
X066Y01225
X017Y00425
X016Y00425
X015Y00425
X0165Y01225
X0145Y01225
X0125Y01225
T05
X00395Y0626
X00495Y0626
X00395Y0616
X00495Y0616
X00395Y0606
X00495Y0606
X00395Y0596
X00495Y0596
X00395Y0586
X00495Y0586
X005Y05575
X006Y05575
X005Y05475
X006Y05475
X005Y05375
X006Y05375
X005Y05275
X006Y05275
X005Y05175
X006Y05175
X005Y05075
X006Y05075
X005Y04975
X006Y04975
X02425Y08
X02425Y079
X02425Y078
X02425Y077
X038Y08
X038Y079
X038Y078
X038Y077
X0536Y0626
X0546Y0626
X0536Y0616
X0546Y0616
X0536Y0606
X0546Y0606
X0536Y0596
X0546Y0596
X0536Y0586
X0546Y0586
X05745Y0626
X05845Y0626
X05745Y0616
X05845Y0616
X05745Y0606
X05845Y0606
X05745Y0596
X05845Y0596
X05745Y0586
X05845Y0586
X0585Y05575
X0595Y05575
X0585Y05475
X0595Y05475
X0585Y05375
X0595Y05375
X0585Y05275
X0595Y05275
X0585Y05175
X0595Y05175
X0585Y05075
X0595Y05075
X0585Y04975
X0595Y04975
X07775Y08
X07775Y079
X07775Y078
X07775Y077
X0915Y08
X0915Y079
X0915Y078
X0915Y077
X1071Y0626
X1081Y0626
X1071Y0616
X1081Y0616
X1071Y0606
X1081Y0606
X1071Y0596
X1081Y0596
X1071Y0586
X1081Y0586
X05745Y0226
X05845Y0226
X05745Y0216
X05845Y0216
X05745Y0206
X05845Y0206
X05745Y0196
X05845Y0196
X05745Y0186
X05845Y0186
X0585Y01575
X0595Y01575
X0585Y01475
X0595Y01475
X0585Y01375
X0595Y01375
X0585Y01275
X0595Y01275
X0585Y01175
X0595Y01175
X0585Y01075
X0595Y01075
X0585Y00975
X0595Y00975
X07775Y04
X07775Y039
X07775Y038
X07775Y037
X0915Y04
X0915Y039
X0915Y038
X0915Y037
X1071Y0226
X1081Y0226
X1071Y0216
X1081Y0216
X1071Y0206
X1081Y0206
X1071Y0196
X1081Y0196
X1071Y0186
X1081Y0186
X00395Y0226
X00495Y0226
X00395Y0216
X00495Y0216
X00395Y0206
X00495Y0206
X00395Y0196
X00495Y0196
X00395Y0186
X00495Y0186
X005Y01575
X006Y01575
X005Y01475
X006Y01475
X005Y01375
X006Y01375
X005Y01275
X006Y01275
X005Y01175
X006Y01175
X005Y01075
X006Y01075
X005Y00975
X006Y00975
X02425Y04
X02425Y039
X02425Y038
X02425Y037
X038Y04
X038Y039
X038Y038
X038Y037
X0536Y0226
X0546Y0226
X0536Y0216
X0546Y0216
X0536Y0206
X0546Y0206
X0536Y0196
X0546Y0196
X0536Y0186
X0546Y0186
T06
X054Y065158
X054Y067126
X054Y069094
X054Y071063
X054Y073032
X00475Y065158
X00475Y067126
X00475Y069094
X00475Y071063
X00475Y073032
X00475Y075
X054Y075
X1075Y065158
X1075Y067126
X1075Y069094
X1075Y071063
X1075Y073032
X05825Y065158
X05825Y067126
X05825Y069094
X05825Y071063
X05825Y073032
X05825Y075
X1075Y075
X1075Y025158
X1075Y027126
X1075Y029094
X1075Y031063
X1075Y033032
X05825Y025158
X05825Y027126
X05825Y029094
X05825Y031063
X05825Y033032
X05825Y035
X1075Y035
X054Y025158
X054Y027126
X054Y029094
X054Y031063
X054Y033032
X00475Y025158
X00475Y027126
X00475Y029094
X00475Y031063
X00475Y033032
X00475Y035
X054Y035
T07
X051804Y062395
X034804Y074895
X032929Y080895
X0065Y06325
X0045Y0775
X0195Y07675
X02325Y06675
X0235Y07375
X02325Y06425
X0405Y07675
X03575Y06975
X03575Y06725
X03575Y064
X05425Y0775
X05425Y0505
X105304Y062395
X088304Y074895
X086429Y080895
X06Y06325
X058Y0775
X073Y07675
X07675Y06675
X077Y07375
X07675Y06425
X094Y07675
X08925Y06975
X08925Y06725
X08925Y064
X10775Y0775
X10775Y0505
X105304Y022395
X088304Y034895
X086429Y040895
X06Y02325
X058Y0375
X073Y03675
X07675Y02675
X077Y03375
X07675Y02425
X094Y03675
X08925Y02975
X08925Y02725
X08925Y024
X10775Y0375
X10775Y0105
X051804Y022395
X034804Y034895
X032929Y040895
X0065Y02325
X0045Y0375
X0195Y03675
X02325Y02675
X0235Y03375
X02325Y02425
X0405Y03675
X03575Y02975
X03575Y02725
X03575Y024
X05425Y0375
X05425Y0105
T08
X0145Y04825
X068Y04825
X068Y00825
X0145Y00825
T09
X0045Y0445
X0045Y0805
X054Y0445
X054Y0805
X058Y0445
X058Y0805
X1075Y0445
X1075Y0805
X058Y0045
X058Y0405
X1075Y0045
X1075Y0405
X0045Y0045
X0045Y0405
X054Y0045
X054Y0405
T10
X0112Y006055G85X0112Y006445
X0112Y010055G85X0112Y010445
X0178Y010055G85X0178Y010445
X0178Y006055G85X0178Y006445
X0647Y006055G85X0647Y006445
X0647Y010055G85X0647Y010445
X0713Y010055G85X0713Y010445
X0713Y006055G85X0713Y006445
X0647Y046055G85X0647Y046445
X0647Y050055G85X0647Y050445
X0713Y050055G85X0713Y050445
X0713Y046055G85X0713Y046445
X0112Y046055G85X0112Y046445
X0112Y050055G85X0112Y050445
X0178Y050055G85X0178Y050445
X0178Y046055G85X0178Y046445
T11
X11075Y00125
X11075Y08375
X00125Y08375
X00125Y00125
M30
