*%FSLAX24Y24*%
%MOIN*%
%IPPOS*%
%ADD10C,0.2X0.158*%
%ADD11C,0.024*%
%ADD12C,0.063*%
%ADD13R,0.063X0.063*%
%ADD14C,0.07*%
%ADD15R,0.07X0.07*%
%ADD16C,0.12*%
%ADD17R,0.0374X0.0516*%
%ADD18C,0.08*%
%ADD19R,0.0516X0.0374*%
%ADD20R,0.0406X0.0744*%
%ADD21R,0.028X0.0146*%
%ADD22R,0.076X0.0189*%
%ADD23C,0.02*%
%ADD24R,0.0839X0.0303*%
%ADD25R,0.2165X0.1142*%
%ADD26R,0.0158X0.0575*%
%ADD27R,0.026X0.0516*%
%ADD28R,0.1638X0.0835*%
%ADD29O,0.11X0.141*%
%ADD30C,0.062*%
%ADD31R,0.0476X0.0697*%
%ADD32C,0.074X0.066*%
%ADD33R,0.0516X0.026*%
%ADD34R,0.0594X0.0161*%
%ADD35C,0.04*%
%ADD36R,0.0516X0.0161*%
%ADD37R,0.0299X0.0535*%
%ADD38R,0.0535X0.0299*%
%ADD39R,0.0303X0.0362*%
%ADD40R,0.061X0.1382*%
%ADD41R,0.0402X0.0406*%
%ADD42R,0.083X0.079*%
%ADD43R,0.016X0.053*%
%ADD44R,0.063X0.075*%
%ADD45R,0.3555X0.3173*%
%ADD46R,0.0362X0.0697*%
%ADD47C,0.01*%
%ADD48C,0.02*%
%ADD49C,0.03*%
%ADD50C,0.05*%
%ADD51C,0.015*%
%ADD52C,0.025*%
%ADD53C,0.016*%
%ADD54C,0.018*%
%ADD55C,0.075*%
%ADD56C,0.1*%
%ADD57C,0.007*%
%ADD58C,0.008*%
%ADD59C,0.039*%
%ADD60C,0.22*%
%ADD61C,0.036*%
%AMD62*
1,1,0.09,0.0,0.0*
1,0,0.07,0.0,0.0*
20,0,0.015,0.0337,-0.0337,-0.0337,0.0337,0.0*
20,0,0.015,-0.0337,-0.0337,0.0337,0.0337,0.0*%
%ADD62D62*%
G04:---LTIenv:A062:5,0.09,0.015,0.07,4,45.0 *
%ADD63C,0.04*%
%AMD64*
1,1,0.082,0.0,0.0*
1,0,0.062,0.0,0.0*
20,0,0.015,0.0308,-0.0308,-0.0308,0.0308,0.0*
20,0,0.015,-0.0308,-0.0308,0.0308,0.0308,0.0*%
%ADD64D64*%
G04:---LTIenv:A064:5,0.082,0.015,0.062,4,45.0 *
%ADD65C,0.15*%
%ADD66C,0.05*%
%ADD67R,0.25X0.25*%
%ADD68C,0.1*%
%AMD69*
1,1,0.1,0.0,0.0*
1,0,0.0875,0.0,0.0*
1,1,0.05,0.0,0.0*
1,0,0.0375,0.0,0.0*
20,1,0.0062,0.0,-0.0969,0.0,0.0969,0.0*
20,1,0.0062,-0.0969,0.0,0.0969,0.0,0.0*%
%ADD69D69*%
G04:---LTIenv:A069:6,0.2,6 *
%ADD100C,0.04*%
%ADD101C,0.062*%
%ADD104C,0.02*%
%ADD105C,0.01*%
%ADD106C,0.02*%
%ADD107C,0.03*%
%ADD108C,0.05*%
%ADD109C,0.1*%
%ADD110C,0.026*%
%ADD117C,0.026*%
%ADD118R,0.042X0.076*%
%ADD119R,0.362X0.323*%
%ADD120C,0.08*%
%ADD121C,0.056*%
%ADD122C,0.085*%
%ADD123C,0.078*%
%ADD124C,0.094*%
%AMD125*
1,1,0.084,0.0,0.0*
1,0,0.064,0.0,0.0*
20,0,0.015,0.0315,-0.0315,-0.0315,0.0315,0.0*
20,0,0.015,-0.0315,-0.0315,0.0315,0.0315,0.0*%
%ADD125D125*%
G04:---LTIenv:A125:5,0.084,0.015,0.064,4,45.0 *
%ADD126O,0.125X0.154*%
%ADD127R,0.069X0.081*%
%ADD128C,0.135*%
%ADD131C,0.068*%
%ADD132C,0.046*%
%ADD135C,0.126*%
%ADD136R,0.076X0.076*%
%ADD137C,0.076*%
%ADD138R,0.069X0.069*%
%ADD139C,0.069*%
%ADD140C,0.03*%
%ADD141C,0.206*%
%ADD142R,0.02X0.057*%
%ADD143R,0.089X0.085*%
%ADD144R,0.046X0.047*%
%ADD145R,0.067X0.144*%
%ADD146R,0.036X0.042*%
%ADD147R,0.06X0.036*%
%ADD148R,0.036X0.06*%
%ADD149R,0.056X0.02*%
%ADD150C,0.046*%
%ADD151R,0.063X0.02*%
%ADD152R,0.058X0.032*%
%ADD153C,0.08*%
%ADD154R,0.054X0.076*%
%ADD155C,0.068*%
%ADD156O,0.116X0.147*%
%ADD157R,0.17X0.09*%
%ADD158R,0.032X0.058*%
%ADD159R,0.02X0.062*%
%ADD160R,0.223X0.12*%
%ADD161R,0.087X0.0325*%
%ADD162R,0.078X0.02*%
%ADD163R,0.034X0.021*%
%ADD164R,0.047X0.08*%
%ADD165R,0.058X0.043*%
%ADD166C,0.086*%
%ADD167R,0.043X0.058*%
%ADD168C,0.126*%
%ADD169R,0.076X0.076*%
%ADD170C,0.076*%
%ADD171R,0.069X0.069*%
%ADD172C,0.069*%
%ADD173C,0.03*%
%ADD174C,0.206*%
%ADD200C,0.002*%
%ADD901C,0.01*%
G04:---LTIenv:A901:15,0.01,1 *
%ADD902C,0.013*%
G04:---LTIenv:A902:15,0.013,2 *
%ADD903C,0.028*%
G04:---LTIenv:A903:15,0.028,3 *
%ADD904C,0.042*%
G04:---LTIenv:A904:15,0.042,4 *
%ADD905C,0.044*%
G04:---LTIenv:A905:15,0.044,5 *
%ADD906C,0.05*%
G04:---LTIenv:A906:15,0.05,6 *
%ADD907C,0.067*%
G04:---LTIenv:A907:15,0.067,7 *
%ADD908C,0.064*%
G04:---LTIenv:A908:15,0.064,8 *
%ADD909C,0.156*%
G04:---LTIenv:A909:15,0.156,9 *
%ADD910C,0.07*%
G04:---LTIenv:A910:15,0.07,10 *
%ADD911C,0.125*%
G04:---LTIenv:A911:15,0.125,11 *

%LPD*%
D58*X151Y-3615D2*X869Y-4266D1*X151D2*X869Y-3615D1*X151Y-3945D2*X869D1*X510Y-4266D2*Y-3615D1*X1172D2*X1890Y-4266D1*X1172D2*X1890Y-3615D1*X1172Y-3945D2*X1890D1*X1531Y-4266D2*Y-3615D1*X3931Y-3246D2*Y-4446D1*X3241Y-3246*Y-4446*X4271Y-3756D2*X4932D1*Y-3246D2*X4271D1*Y-4446*X4932*X5291Y-3756D2*X5953D1*Y-3246D2*X5291D1*Y-4446*X5953*X6803D2*X6983Y-4266D1*Y-3435*X6803Y-3246*X6293*Y-4446*X6803*X9061Y-3246D2*Y-4266D1*X8882Y-4446*X8523*X8343Y-4266*Y-3246*X10035Y-4446D2*X9383D1*Y-3246*X12076Y-4446D2*X11424D1*Y-3246*X12416Y-3435D2*Y-4266D1*X12595Y-4446*X12954*X13134Y-4266*Y-3435*X12954Y-3246*X12595*X12416Y-3435*X13776Y-3907D2*X14107D1*Y-4446*X13625*X13446Y-4266*Y-3435*X13625Y-3246*X14107*X14457Y-3435D2*Y-4266D1*X14636Y-4446*X14995*X15175Y-4266*Y-3435*X14995Y-3246*X14636*X14457Y-3435*X17169Y-4446D2*X16450Y-3615D1*Y-3435*X16649Y-3246*X16838Y-3435*Y-3615*X16450Y-3907*Y-4266*X16630Y-4446*X16809*X16989Y-4304*Y-4125*X17169Y-3945*X19049Y-4446D2*X19228Y-4266D1*Y-3435*X19049Y-3246*X18539*Y-4446*X19049*X19559Y-3907D2*X20249D1*Y-4446D2*Y-3435D1*X20069Y-3246*X19739*X19559Y-3435*Y-4446*X20957D2*Y-3246D1*X20598D2*X21317D1*X21619Y-3756D2*X22280D1*Y-3246D2*X21619D1*Y-4446*X22280*X24340D2*X23802D1*X23622Y-4266*Y-3435*X23802Y-3246*X24340*X24661Y-3435D2*Y-4266D1*X24841Y-4446*X25200*X25380Y-4266*Y-3435*X25200Y-3246*X24841*X24661Y-3435*X26192Y-4446D2*X26372Y-4266D1*Y-3435*X26192Y-3246*X25682*Y-4446*X26192*X26721Y-3756D2*X27383D1*Y-3246D2*X26721D1*Y-4446*X27383*X151Y-5145D2*X869Y-5797D1*X151D2*X869Y-5145D1*X151Y-5476D2*X869D1*X510Y-5797D2*Y-5145D1*X1172D2*X1890Y-5797D1*X1172D2*X1890Y-5145D1*X1172Y-5476D2*X1890D1*X1531Y-5797D2*Y-5145D1*X3940Y-5618D2*X3250D1*X3761Y-4777*Y-5977*X4271Y-5476D2*X4932D1*X6000Y-4777D2*Y-5797D1*X5820Y-5977*X5461*X5282Y-5797*Y-4777*X6312Y-5287D2*X6822D1*X7002Y-5107*Y-4966*X6822Y-4777*X6312*Y-5977*X8353Y-5287D2*X8863D1*X9043Y-5107*Y-4966*X8863Y-4777*X8353*Y-5977*X9373Y-5287D2*X10035D1*Y-4777D2*X9373D1*Y-5977*X10035*X10706Y-5325D2*X11065Y-5977D1*X10413Y-5325D2*X10885D1*X11065Y-5145*Y-4966*X10885Y-4777*X10413*Y-5977*X12435Y-5287D2*X12945D1*X13124Y-5107*Y-4966*X12945Y-4777*X12435*Y-5977*X13436Y-5438D2*X14126D1*Y-5977D2*Y-4966D1*X13946Y-4777*X13616*X13436Y-4966*Y-5977*X15156Y-4777D2*Y-5977D1*X14466Y-4777*Y-5977*X15496Y-5287D2*X16157D1*Y-4777D2*X15496D1*Y-5977*X16157*X17178D2*X16526D1*Y-4777*X19247D2*X19096Y-5977D1*X18917Y-5259*X18737Y-5977*X18557Y-4777*X19550Y-5977D2*X19909D1*X19729D2*Y-4777D1*X19550D2*X19909D1*X20957Y-5977D2*Y-4777D1*X20598D2*X21317D1*X21600Y-5287D2*X22290D1*Y-5977D2*Y-4777D1*X21600Y-5977D2*Y-4777D1*X23669Y-5977D2*X24151D1*X24331Y-5797*Y-5438*X24151Y-5259*X23849*X23669Y-5079*Y-4966*X23849Y-4777*X24331*X25361Y-5977D2*X24822D1*X24643Y-5797*Y-4966*X24822Y-4777*X25361*X25682Y-4966D2*Y-5797D1*X25861Y-5977*X26220*X26400Y-5797*Y-4966*X26220Y-4777*X25861*X25682Y-4966*X27033Y-5325D2*X27392Y-5977D1*X26740Y-5325D2*X27213D1*X27392Y-5145*Y-4966*X27213Y-4777*X26740*Y-5977*X27713D2*X28072D1*X27893D2*Y-4777D1*X27713D2*X28072D1*X29443D2*Y-5977D1*X28753Y-4777*Y-5977*X30104Y-5438D2*X30435D1*Y-5977*X29953*X29773Y-5797*Y-4966*X29953Y-4777*X30435*X151Y-6676D2*X869Y-7328D1*X151D2*X869Y-6676D1*X151Y-7007D2*X869D1*X510Y-7328D2*Y-6676D1*X1172D2*X1890Y-7328D1*X1172D2*X1890Y-6676D1*X1172Y-7007D2*X1890D1*X1531Y-7328D2*Y-6676D1*X3222Y-7507D2*X3581D1*X3402D2*Y-6307D1*X3222D2*X3581D1*X4932Y-7507D2*Y-6307D1*X4602Y-6969*X4271Y-6307*Y-7507*X5953D2*Y-6307D1*X5622Y-6969*X5291Y-6307*Y-7507*X6312Y-6818D2*X6973D1*Y-6307D2*X6312D1*Y-7507*X6973*X7644Y-6855D2*X8003Y-7507D1*X7351Y-6855D2*X7824D1*X8003Y-6676*Y-6496*X7824Y-6307*X7351*Y-7507*X8362D2*X8844D1*X9024Y-7328*Y-6969*X8844Y-6789*X8542*X8362Y-6610*Y-6496*X8542Y-6307*X9024*X9345Y-7507D2*X9704D1*X9524D2*Y-6307D1*X9345D2*X9704D1*X10375Y-6496D2*Y-7328D1*X10554Y-7507*X10913*X11093Y-7328*Y-6496*X10913Y-6307*X10554*X10375Y-6496*X12094Y-6307D2*Y-7507D1*X11405Y-6307*Y-7507*X13776Y-6969D2*X14107D1*Y-7507*X13625*X13446Y-7328*Y-6496*X13625Y-6307*X14107*X14457Y-6496D2*Y-7328D1*X14636Y-7507*X14995*X15175Y-7328*Y-6496*X14995Y-6307*X14636*X14457Y-6496*X16157Y-7507D2*X15506D1*Y-6307*X17008Y-7507D2*X17187Y-7328D1*Y-6496*X17008Y-6307*X16498*Y-7507*X17008*X151Y-8207D2*X869Y-8859D1*X151D2*X869Y-8207D1*X151Y-8537D2*X869D1*X510Y-8859D2*Y-8207D1*X1172D2*X1890Y-8859D1*X1172D2*X1890Y-8207D1*X1172Y-8537D2*X1890D1*X1531Y-8859D2*Y-8207D1*X3392Y-9038D2*X3751D1*X3572D2*Y-7838D1*X3392Y-8027*X4252Y-8348D2*X4791D1*X4970Y-8537*Y-8859*X4791Y-9038*X4431*X4252Y-8802*Y-8027*X4431Y-7838*X4791*X4970Y-8027*X6312Y-8348D2*X6822D1*X7002Y-8169*Y-8027*X6822Y-7838*X6312*Y-9038*X7994D2*X7342D1*Y-7838*X8334Y-8500D2*X9024D1*Y-9038D2*Y-8027D1*X8844Y-7838*X8513*X8334Y-8027*Y-9038*X9732D2*Y-7838D1*X9373D2*X10091D1*X10394Y-8348D2*X11055D1*Y-7838D2*X10394D1*Y-9038*X11055*X11906D2*X12085Y-8859D1*Y-8027*X11906Y-7838*X11395*Y-9038*X11906*X13465D2*X13946D1*X14126Y-8859*Y-8500*X13946Y-8320*X13644*X13465Y-8140*Y-8027*X13644Y-7838*X14126*X15137Y-9038D2*X14485D1*Y-7838*X15477Y-8027D2*Y-8859D1*X15657Y-9038*X16016*X16195Y-8859*Y-8027*X16016Y-7838*X15657*X15477Y-8027*X16876Y-9038D2*Y-7838D1*X16517D2*X17235D1*X17546Y-9038D2*X18028D1*X18208Y-8859*Y-8500*X18028Y-8320*X17726*X17546Y-8140*Y-8027*X17726Y-7838*X18208*X151Y-9737D2*X869Y-10389D1*X151D2*X869Y-9737D1*X151Y-10068D2*X869D1*X510Y-10389D2*Y-9737D1*X1172D2*X1890Y-10389D1*X1172D2*X1890Y-9737D1*X1172Y-10068D2*X1890D1*X1531Y-10389D2*Y-9737D1*X3609Y-10569D2*Y-9369D1*X3250D2*X3969D1*X4271Y-9879D2*X4932D1*Y-9369D2*X4271D1*Y-10569*X4932*X5301D2*X5783D1*X5962Y-10389*Y-10030*X5783Y-9851*X5480*X5301Y-9671*Y-9558*X5480Y-9369*X5962*X6671Y-10569D2*Y-9369D1*X6312D2*X7030D1*X7304Y-10569D2*X7663D1*X7483D2*Y-9369D1*X7304D2*X7663D1*X9033D2*Y-10569D1*X8343Y-9369*Y-10569*X9694Y-10030D2*X10025D1*Y-10569*X9543*X9364Y-10389*Y-9558*X9543Y-9369*X10025*X11726Y-9917D2*X12085Y-10569D1*X11433Y-9917D2*X11906D1*X12085Y-9737*Y-9558*X11906Y-9369*X11433*Y-10569*X12435Y-9879D2*X13096D1*Y-9369D2*X12435D1*Y-10569*X13096*X13776Y-10210D2*X14135Y-10569D1*X13625Y-9369D2*X13446Y-9558D1*Y-10389*X13625Y-10569*X13956*X14135Y-10389*Y-9558*X13956Y-9369*X13625*X15184D2*Y-10389D1*X15005Y-10569*X14646*X14466Y-10389*Y-9369*X15468Y-10569D2*X15827D1*X15647D2*Y-9369D1*X15468D2*X15827D1*X16828Y-9917D2*X17187Y-10569D1*X16535Y-9917D2*X17008D1*X17187Y-9737*Y-9558*X17008Y-9369*X16535*Y-10569*X17537Y-9879D2*X18198D1*Y-9369D2*X17537D1*Y-10569*X18198*X19049D2*X19228Y-10389D1*Y-9558*X19049Y-9369*X18539*Y-10569*X19049*X36897Y-2225D2*X37435D1*X36897Y-2915D2*X37435D1*X37615Y-2735*Y-2376*X37435Y-2225*X37615Y-2084*Y-1904*X37435Y-1715*X36897*Y-2915*X37927Y-1904D2*Y-2735D1*X38106Y-2915*X38465*X38645Y-2735*Y-1904*X38465Y-1715*X38106*X37927Y-1904*X39325Y-2915D2*Y-1715D1*X38966D2*X39684D1*X40345Y-2915D2*Y-1715D1*X39986D2*X40705D1*X40988Y-1904D2*Y-2735D1*X41167Y-2915*X41527*X41706Y-2735*Y-1904*X41527Y-1715*X41167*X40988Y-1904*X42689Y-2915D2*Y-1715D1*X42358Y-2376*X42027Y-1715*Y-2915*X44730D2*Y-1715D1*X44399Y-2376*X44068Y-1715*Y-2915*X45070Y-2376D2*X45760D1*Y-2915D2*Y-1904D1*X45580Y-1715*X45249*X45070Y-1904*Y-2915*X46119D2*X46601D1*X46780Y-2735*Y-2376*X46601Y-2197*X46298*X46119Y-2017*Y-1904*X46298Y-1715*X46780*X47139Y-2915D2*Y-1715D1*X47801Y-2915D2*X47139Y-2225D1*X47801Y-1715*D65*X110750Y1250D3*Y83750D3*X1250D3*Y1250D3*D68*X110750Y78750D3*X105750Y83750D3*X1250Y78750D3*X6250Y83750D3*X1250Y6250D3*X6250Y1250D3*D69*X-2540Y-2540D3*Y87540D3*X114540D3*D117*X9500Y58500D3*X10327Y66423D3*X10000Y70000D3*Y69750D3*Y69500D3*Y70250D3*X10250Y69750D3*Y70000D3*Y69500D3*Y70250D3*Y70500D3*X10000D3*X11750Y69750D3*X11500D3*X11750Y70000D3*X11500D3*X11750Y69500D3*X11500D3*X11000Y69750D3*X10750D3*X11000Y70000D3*X10750D3*X10500D3*Y69750D3*X11250D3*Y70000D3*X11000Y69500D3*X10750D3*X10500D3*X11250D3*X11000Y70250D3*X10750D3*X10500D3*X11250D3*X12000D3*X11500D3*X11750D3*X12000Y69750D3*Y69500D3*Y70000D3*Y70500D3*X11750D3*X11500D3*X11250D3*X11000D3*X10750D3*X10500D3*X15500Y57375D3*X18875Y56250D3*X19500Y60750D3*X24125Y55875D3*X31522Y74500D3*Y74750D3*Y75000D3*Y75250D3*Y75500D3*Y75750D3*X31272D3*Y75500D3*Y75250D3*Y75000D3*Y74750D3*Y74500D3*X31022D3*Y74750D3*Y75000D3*Y75250D3*Y75500D3*Y75750D3*X30772D3*Y75500D3*Y75250D3*Y75000D3*Y74750D3*Y74500D3*X30522D3*Y74750D3*Y75000D3*Y75250D3*Y75500D3*Y75750D3*X30272D3*Y75500D3*Y75250D3*Y75000D3*Y74750D3*Y74500D3*X30022D3*Y74750D3*Y75000D3*Y75250D3*Y75500D3*Y75750D3*X29772Y74500D3*Y74750D3*Y75000D3*Y75250D3*Y75500D3*Y75750D3*X29522Y74500D3*Y74750D3*Y75000D3*Y75250D3*Y75500D3*Y75750D3*X31000Y74000D3*X29522Y76750D3*X31522Y76500D3*X31272D3*X31022D3*X30772D3*X30522D3*X30272D3*X30022D3*X29772D3*X29522D3*X31522Y76750D3*X31272D3*X31022D3*X30772D3*X30522D3*X30272D3*X29772D3*X30022D3*X31022Y76000D3*X31272D3*X31522D3*Y76250D3*X31272D3*X31022D3*X30772D3*Y76000D3*X30522D3*Y76250D3*X30272D3*Y76000D3*X30022D3*Y76250D3*X29772Y76000D3*Y76250D3*X29522Y76000D3*Y76250D3*X32522Y74500D3*Y74750D3*Y75000D3*Y75250D3*X32272D3*Y75000D3*Y74750D3*Y74500D3*Y75500D3*X32522D3*Y75750D3*X32272D3*X32022Y74500D3*Y74750D3*Y75000D3*Y75250D3*X31772D3*Y75000D3*Y74750D3*Y74500D3*Y75500D3*X32022D3*Y75750D3*X31772D3*X32522Y76500D3*X32272D3*X32522Y76750D3*X32272D3*Y76000D3*X32522D3*Y76250D3*X32272D3*X32022Y76500D3*X31772D3*X32022Y76750D3*X31772D3*Y76000D3*X32022D3*Y76250D3*X31772D3*X47375Y66625D3*X47500Y70250D3*Y69500D3*Y70000D3*Y69750D3*X47250Y70250D3*Y69500D3*Y69750D3*Y70000D3*X47750Y70250D3*Y69500D3*Y69750D3*Y70000D3*X47250Y70500D3*X47500D3*X47750D3*X49000Y70250D3*X48750D3*X49250D3*X48500D3*X48000D3*X48250D3*X48500Y69500D3*X48000D3*X48250D3*X48500Y70000D3*Y69750D3*X48000Y70000D3*X48250D3*X48000Y69750D3*X48250D3*X48750Y69500D3*X49000D3*X49250D3*X48750Y70000D3*X49000D3*X49250D3*X48750Y69750D3*X49000D3*X49250D3*X48000Y70500D3*X48250D3*X48500D3*X48750D3*X49000D3*X49250D3*X63000Y58500D3*X63827Y66423D3*X63500Y70000D3*Y69750D3*Y69500D3*Y70250D3*X63750Y69750D3*Y70000D3*Y69500D3*Y70250D3*Y70500D3*X63500D3*X65250Y69750D3*X65000D3*X65250Y70000D3*X65000D3*X65250Y69500D3*X65000D3*X64500Y69750D3*X64250D3*X64500Y70000D3*X64250D3*X64000D3*Y69750D3*X64750D3*Y70000D3*X64500Y69500D3*X64250D3*X64000D3*X64750D3*X64500Y70250D3*X64250D3*X64000D3*X64750D3*X65500D3*X65000D3*X65250D3*X65500Y69750D3*Y69500D3*Y70000D3*Y70500D3*X65250D3*X65000D3*X64750D3*X64500D3*X64250D3*X64000D3*X69000Y57375D3*X72375Y56250D3*X73000Y60750D3*X77625Y55875D3*X85022Y74500D3*Y74750D3*Y75000D3*Y75250D3*Y75500D3*Y75750D3*X84772D3*Y75500D3*Y75250D3*Y75000D3*Y74750D3*Y74500D3*X84522D3*Y74750D3*Y75000D3*Y75250D3*Y75500D3*Y75750D3*X84272D3*Y75500D3*Y75250D3*Y75000D3*Y74750D3*Y74500D3*X84022D3*Y74750D3*Y75000D3*Y75250D3*Y75500D3*Y75750D3*X83772D3*Y75500D3*Y75250D3*Y75000D3*Y74750D3*Y74500D3*X83522D3*Y74750D3*Y75000D3*Y75250D3*Y75500D3*Y75750D3*X83272Y74500D3*Y74750D3*Y75000D3*Y75250D3*Y75500D3*Y75750D3*X83022Y74500D3*Y74750D3*Y75000D3*Y75250D3*Y75500D3*Y75750D3*X84500Y74000D3*X83022Y76750D3*X85022Y76500D3*X84772D3*X84522D3*X84272D3*X84022D3*X83772D3*X83522D3*X83272D3*X83022D3*X85022Y76750D3*X84772D3*X84522D3*X84272D3*X84022D3*X83772D3*X83272D3*X83522D3*X84522Y76000D3*X84772D3*X85022D3*Y76250D3*X84772D3*X84522D3*X84272D3*Y76000D3*X84022D3*Y76250D3*X83772D3*Y76000D3*X83522D3*Y76250D3*X83272Y76000D3*Y76250D3*X83022Y76000D3*Y76250D3*X86022Y74500D3*Y74750D3*Y75000D3*Y75250D3*X85772D3*Y75000D3*Y74750D3*Y74500D3*Y75500D3*X86022D3*Y75750D3*X85772D3*X85522Y74500D3*Y74750D3*Y75000D3*Y75250D3*X85272D3*Y75000D3*Y74750D3*Y74500D3*Y75500D3*X85522D3*Y75750D3*X85272D3*X86022Y76500D3*X85772D3*X86022Y76750D3*X85772D3*Y76000D3*X86022D3*Y76250D3*X85772D3*X85522Y76500D3*X85272D3*X85522Y76750D3*X85272D3*Y76000D3*X85522D3*Y76250D3*X85272D3*X100875Y66625D3*X101000Y70250D3*Y69500D3*Y70000D3*Y69750D3*X100750Y70250D3*Y69500D3*Y69750D3*Y70000D3*X101250Y70250D3*Y69500D3*Y69750D3*Y70000D3*X100750Y70500D3*X101000D3*X101250D3*X102500Y70250D3*X102250D3*X102750D3*X102000D3*X101500D3*X101750D3*X102000Y69500D3*X101500D3*X101750D3*X102000Y70000D3*Y69750D3*X101500Y70000D3*X101750D3*X101500Y69750D3*X101750D3*X102250Y69500D3*X102500D3*X102750D3*X102250Y70000D3*X102500D3*X102750D3*X102250Y69750D3*X102500D3*X102750D3*X101500Y70500D3*X101750D3*X102000D3*X102250D3*X102500D3*X102750D3*X63000Y18500D3*X63827Y26423D3*X63500Y30000D3*Y29750D3*Y29500D3*Y30250D3*X63750Y29750D3*Y30000D3*Y29500D3*Y30250D3*Y30500D3*X63500D3*X65250Y29750D3*X65000D3*X65250Y30000D3*X65000D3*X65250Y29500D3*X65000D3*X64500Y29750D3*X64250D3*X64500Y30000D3*X64250D3*X64000D3*Y29750D3*X64750D3*Y30000D3*X64500Y29500D3*X64250D3*X64000D3*X64750D3*X64500Y30250D3*X64250D3*X64000D3*X64750D3*X65500D3*X65000D3*X65250D3*X65500Y29750D3*Y29500D3*Y30000D3*Y30500D3*X65250D3*X65000D3*X64750D3*X64500D3*X64250D3*X64000D3*X69000Y17375D3*X72375Y16250D3*X73000Y20750D3*X77625Y15875D3*X85022Y34500D3*Y34750D3*Y35000D3*Y35250D3*Y35500D3*Y35750D3*X84772D3*Y35500D3*Y35250D3*Y35000D3*Y34750D3*Y34500D3*X84522D3*Y34750D3*Y35000D3*Y35250D3*Y35500D3*Y35750D3*X84272D3*Y35500D3*Y35250D3*Y35000D3*Y34750D3*Y34500D3*X84022D3*Y34750D3*Y35000D3*Y35250D3*Y35500D3*Y35750D3*X83772D3*Y35500D3*Y35250D3*Y35000D3*Y34750D3*Y34500D3*X83522D3*Y34750D3*Y35000D3*Y35250D3*Y35500D3*Y35750D3*X83272Y34500D3*Y34750D3*Y35000D3*Y35250D3*Y35500D3*Y35750D3*X83022Y34500D3*Y34750D3*Y35000D3*Y35250D3*Y35500D3*Y35750D3*X84500Y34000D3*X83022Y36750D3*X85022Y36500D3*X84772D3*X84522D3*X84272D3*X84022D3*X83772D3*X83522D3*X83272D3*X83022D3*X85022Y36750D3*X84772D3*X84522D3*X84272D3*X84022D3*X83772D3*X83272D3*X83522D3*X84522Y36000D3*X84772D3*X85022D3*Y36250D3*X84772D3*X84522D3*X84272D3*Y36000D3*X84022D3*Y36250D3*X83772D3*Y36000D3*X83522D3*Y36250D3*X83272Y36000D3*Y36250D3*X83022Y36000D3*Y36250D3*X86022Y34500D3*Y34750D3*Y35000D3*Y35250D3*X85772D3*Y35000D3*Y34750D3*Y34500D3*Y35500D3*X86022D3*Y35750D3*X85772D3*X85522Y34500D3*Y34750D3*Y35000D3*Y35250D3*X85272D3*Y35000D3*Y34750D3*Y34500D3*Y35500D3*X85522D3*Y35750D3*X85272D3*X86022Y36500D3*X85772D3*X86022Y36750D3*X85772D3*Y36000D3*X86022D3*Y36250D3*X85772D3*X85522Y36500D3*X85272D3*X85522Y36750D3*X85272D3*Y36000D3*X85522D3*Y36250D3*X85272D3*X100875Y26625D3*X101000Y30250D3*Y29500D3*Y30000D3*Y29750D3*X100750Y30250D3*Y29500D3*Y29750D3*Y30000D3*X101250Y30250D3*Y29500D3*Y29750D3*Y30000D3*X100750Y30500D3*X101000D3*X101250D3*X102500Y30250D3*X102250D3*X102750D3*X102000D3*X101500D3*X101750D3*X102000Y29500D3*X101500D3*X101750D3*X102000Y30000D3*Y29750D3*X101500Y30000D3*X101750D3*X101500Y29750D3*X101750D3*X102250Y29500D3*X102500D3*X102750D3*X102250Y30000D3*X102500D3*X102750D3*X102250Y29750D3*X102500D3*X102750D3*X101500Y30500D3*X101750D3*X102000D3*X102250D3*X102500D3*X102750D3*X9500Y18500D3*X10327Y26423D3*X10000Y30000D3*Y29750D3*Y29500D3*Y30250D3*X10250Y29750D3*Y30000D3*Y29500D3*Y30250D3*Y30500D3*X10000D3*X11750Y29750D3*X11500D3*X11750Y30000D3*X11500D3*X11750Y29500D3*X11500D3*X11000Y29750D3*X10750D3*X11000Y30000D3*X10750D3*X10500D3*Y29750D3*X11250D3*Y30000D3*X11000Y29500D3*X10750D3*X10500D3*X11250D3*X11000Y30250D3*X10750D3*X10500D3*X11250D3*X12000D3*X11500D3*X11750D3*X12000Y29750D3*Y29500D3*Y30000D3*Y30500D3*X11750D3*X11500D3*X11250D3*X11000D3*X10750D3*X10500D3*X15500Y17375D3*X18875Y16250D3*X19500Y20750D3*X24125Y15875D3*X31522Y34500D3*Y34750D3*Y35000D3*Y35250D3*Y35500D3*Y35750D3*X31272D3*Y35500D3*Y35250D3*Y35000D3*Y34750D3*Y34500D3*X31022D3*Y34750D3*Y35000D3*Y35250D3*Y35500D3*Y35750D3*X30772D3*Y35500D3*Y35250D3*Y35000D3*Y34750D3*Y34500D3*X30522D3*Y34750D3*Y35000D3*Y35250D3*Y35500D3*Y35750D3*X30272D3*Y35500D3*Y35250D3*Y35000D3*Y34750D3*Y34500D3*X30022D3*Y34750D3*Y35000D3*Y35250D3*Y35500D3*Y35750D3*X29772Y34500D3*Y34750D3*Y35000D3*Y35250D3*Y35500D3*Y35750D3*X29522Y34500D3*Y34750D3*Y35000D3*Y35250D3*Y35500D3*Y35750D3*X31000Y34000D3*X29522Y36750D3*X31522Y36500D3*X31272D3*X31022D3*X30772D3*X30522D3*X30272D3*X30022D3*X29772D3*X29522D3*X31522Y36750D3*X31272D3*X31022D3*X30772D3*X30522D3*X30272D3*X29772D3*X30022D3*X31022Y36000D3*X31272D3*X31522D3*Y36250D3*X31272D3*X31022D3*X30772D3*Y36000D3*X30522D3*Y36250D3*X30272D3*Y36000D3*X30022D3*Y36250D3*X29772Y36000D3*Y36250D3*X29522Y36000D3*Y36250D3*X32522Y34500D3*Y34750D3*Y35000D3*Y35250D3*X32272D3*Y35000D3*Y34750D3*Y34500D3*Y35500D3*X32522D3*Y35750D3*X32272D3*X32022Y34500D3*Y34750D3*Y35000D3*Y35250D3*X31772D3*Y35000D3*Y34750D3*Y34500D3*Y35500D3*X32022D3*Y35750D3*X31772D3*X32522Y36500D3*X32272D3*X32522Y36750D3*X32272D3*Y36000D3*X32522D3*Y36250D3*X32272D3*X32022Y36500D3*X31772D3*X32022Y36750D3*X31772D3*Y36000D3*X32022D3*Y36250D3*X31772D3*X47375Y26625D3*X47500Y30250D3*Y29500D3*Y30000D3*Y29750D3*X47250Y30250D3*Y29500D3*Y29750D3*Y30000D3*X47750Y30250D3*Y29500D3*Y29750D3*Y30000D3*X47250Y30500D3*X47500D3*X47750D3*X49000Y30250D3*X48750D3*X49250D3*X48500D3*X48000D3*X48250D3*X48500Y29500D3*X48000D3*X48250D3*X48500Y30000D3*Y29750D3*X48000Y30000D3*X48250D3*X48000Y29750D3*X48250D3*X48750Y29500D3*X49000D3*X49250D3*X48750Y30000D3*X49000D3*X49250D3*X48750Y29750D3*X49000D3*X49250D3*X48000Y30500D3*X48250D3*X48500D3*X48750D3*X49000D3*X49250D3*D131*X12500Y52250D3*X15000Y44250D3*X14500Y52250D3*X16000Y44250D3*X17000D3*X16500Y52250D3*X66000D3*X68500Y44250D3*X68000Y52250D3*X69500Y44250D3*X70500D3*X70000Y52250D3*X66000Y12250D3*X68500Y4250D3*X68000Y12250D3*X69500Y4250D3*X70500D3*X70000Y12250D3*X12500D3*X15000Y4250D3*X14500Y12250D3*X16000Y4250D3*X17000D3*X16500Y12250D3*D132*X18500Y67000D3*X20500D3*X19500Y68000D3*X18500Y72250D3*X19500Y73250D3*X20500Y72250D3*X28500Y62250D3*Y61250D3*X27500D3*Y62250D3*X28500Y63250D3*X27500D3*X38750Y67000D3*X39750Y68000D3*X38750Y72250D3*X39750Y73250D3*X40750Y67000D3*Y72250D3*X72000Y67000D3*X74000D3*X73000Y68000D3*X72000Y72250D3*X73000Y73250D3*X74000Y72250D3*X82000Y62250D3*Y61250D3*X81000D3*Y62250D3*X82000Y63250D3*X81000D3*X92250Y67000D3*X93250Y68000D3*X92250Y72250D3*X93250Y73250D3*X94250Y67000D3*Y72250D3*X72000Y27000D3*X74000D3*X73000Y28000D3*X72000Y32250D3*X73000Y33250D3*X74000Y32250D3*X82000Y22250D3*Y21250D3*X81000D3*Y22250D3*X82000Y23250D3*X81000D3*X92250Y27000D3*X93250Y28000D3*X92250Y32250D3*X93250Y33250D3*X94250Y27000D3*Y32250D3*X18500Y27000D3*X20500D3*X19500Y28000D3*X18500Y32250D3*X19500Y33250D3*X20500Y32250D3*X28500Y22250D3*Y21250D3*X27500D3*Y22250D3*X28500Y23250D3*X27500D3*X38750Y27000D3*X39750Y28000D3*X38750Y32250D3*X39750Y33250D3*X40750Y27000D3*Y32250D3*D135*X4500Y77500D3*X6500Y63250D3*X19500Y76750D3*X23250Y64250D3*Y66750D3*X23500Y73750D3*X34804Y74895D3*X32929Y80895D3*X35750Y64000D3*Y67250D3*Y69750D3*X40500Y76750D3*X51804Y62395D3*X54250Y50500D3*Y77500D3*X58000D3*X60000Y63250D3*X73000Y76750D3*X76750Y64250D3*Y66750D3*X77000Y73750D3*X88304Y74895D3*X86429Y80895D3*X89250Y64000D3*Y67250D3*Y69750D3*X94000Y76750D3*X105304Y62395D3*X107750Y50500D3*Y77500D3*X58000Y37500D3*X60000Y23250D3*X73000Y36750D3*X76750Y24250D3*Y26750D3*X77000Y33750D3*X88304Y34895D3*X86429Y40895D3*X89250Y24000D3*Y27250D3*Y29750D3*X94000Y36750D3*X105304Y22395D3*X107750Y10500D3*Y37500D3*X4500D3*X6500Y23250D3*X19500Y36750D3*X23250Y24250D3*Y26750D3*X23500Y33750D3*X34804Y34895D3*X32929Y40895D3*X35750Y24000D3*Y27250D3*Y29750D3*X40500Y36750D3*X51804Y22395D3*X54250Y10500D3*Y37500D3*D136*X4750Y75000D3*X54000D3*X58250D3*X107500D3*X58250Y35000D3*X107500D3*X4750D3*X54000D3*D137*X4750Y65158D3*Y67126D3*Y69094D3*Y71063D3*Y73032D3*X54000Y65158D3*Y67126D3*Y69094D3*Y71063D3*Y73032D3*X58250Y65158D3*Y67126D3*Y69094D3*Y71063D3*Y73032D3*X107500Y65158D3*Y67126D3*Y69094D3*Y71063D3*Y73032D3*X58250Y25158D3*Y27126D3*Y29094D3*Y31063D3*Y33032D3*X107500Y25158D3*Y27126D3*Y29094D3*Y31063D3*Y33032D3*X4750Y25158D3*Y27126D3*Y29094D3*Y31063D3*Y33032D3*X54000Y25158D3*Y27126D3*Y29094D3*Y31063D3*Y33032D3*D138*X5000Y55750D3*X3950Y62600D3*X24250Y80000D3*X38000D3*X53600Y62600D3*X58500Y55750D3*X57450Y62600D3*X77750Y80000D3*X91500D3*X107100Y62600D3*X58500Y15750D3*X57450Y22600D3*X77750Y40000D3*X91500D3*X107100Y22600D3*X5000Y15750D3*X3950Y22600D3*X24250Y40000D3*X38000D3*X53600Y22600D3*D139*X5000Y49750D3*Y50750D3*Y51750D3*Y52750D3*Y53750D3*Y54750D3*X4950Y58600D3*X3950D3*X4950Y59600D3*X3950D3*X4950Y60600D3*X3950D3*X4950Y61600D3*X3950D3*X4950Y62600D3*X6000Y49750D3*Y50750D3*Y51750D3*Y52750D3*Y53750D3*Y54750D3*Y55750D3*X24250Y77000D3*Y78000D3*Y79000D3*X38000Y77000D3*Y78000D3*Y79000D3*X54600Y58600D3*X53600D3*X54600Y59600D3*X53600D3*X54600Y60600D3*X53600D3*X54600Y61600D3*X53600D3*X54600Y62600D3*X58500Y49750D3*Y50750D3*Y51750D3*Y52750D3*Y53750D3*Y54750D3*X58450Y58600D3*X57450D3*X58450Y59600D3*X57450D3*X58450Y60600D3*X57450D3*X58450Y61600D3*X57450D3*X58450Y62600D3*X59500Y49750D3*Y50750D3*Y51750D3*Y52750D3*Y53750D3*Y54750D3*Y55750D3*X77750Y77000D3*Y78000D3*Y79000D3*X91500Y77000D3*Y78000D3*Y79000D3*X108100Y58600D3*X107100D3*X108100Y59600D3*X107100D3*X108100Y60600D3*X107100D3*X108100Y61600D3*X107100D3*X108100Y62600D3*X58500Y9750D3*Y10750D3*Y11750D3*Y12750D3*Y13750D3*Y14750D3*X58450Y18600D3*X57450D3*X58450Y19600D3*X57450D3*X58450Y20600D3*X57450D3*X58450Y21600D3*X57450D3*X58450Y22600D3*X59500Y9750D3*Y10750D3*Y11750D3*Y12750D3*Y13750D3*Y14750D3*Y15750D3*X77750Y37000D3*Y38000D3*Y39000D3*X91500Y37000D3*Y38000D3*Y39000D3*X108100Y18600D3*X107100D3*X108100Y19600D3*X107100D3*X108100Y20600D3*X107100D3*X108100Y21600D3*X107100D3*X108100Y22600D3*X5000Y9750D3*Y10750D3*Y11750D3*Y12750D3*Y13750D3*Y14750D3*X4950Y18600D3*X3950D3*X4950Y19600D3*X3950D3*X4950Y20600D3*X3950D3*X4950Y21600D3*X3950D3*X4950Y22600D3*X6000Y9750D3*Y10750D3*Y11750D3*Y12750D3*Y13750D3*Y14750D3*Y15750D3*X24250Y37000D3*Y38000D3*Y39000D3*X38000Y37000D3*Y38000D3*Y39000D3*X54600Y18600D3*X53600D3*X54600Y19600D3*X53600D3*X54600Y20600D3*X53600D3*X54600Y21600D3*X53600D3*X54600Y22600D3*D140*X4659Y48500D3*X7500Y61250D3*X6000Y60000D3*X8409Y47500D3*Y51000D3*Y49250D3*X10250D3*X8409Y52750D3*X8949Y54050D3*X9300Y56920D3*X9250Y55375D3*X9500Y59347D3*X9299Y59000D3*X9280Y58000D3*X8250Y58500D3*X9613Y59887D3*X9169Y60875D3*X8770Y60280D3*X9760Y60460D3*X8051Y60396D3*X9000Y63625D3*X10104Y65720D3*X10057Y67567D3*X8660Y68960D3*X8350Y73000D3*X7750Y75500D3*X8375Y77625D3*X9624Y80191D3*X8125Y79000D3*X10500Y56125D3*X11250Y63470D3*Y66250D3*X12625Y66375D3*X12750Y69500D3*X12436Y67828D3*X11954Y68169D3*X12650Y70050D3*X11384Y68000D3*X10360Y68094D3*X12592Y72362D3*X12250Y71750D3*X10360Y72375D3*X10910Y74090D3*X12500Y75625D3*X12700Y74700D3*X12500Y77875D3*X14250Y59500D3*X13828Y59600D3*X14000Y57750D3*X13770Y60700D3*X14790Y61023D3*X13152Y60972D3*X14380Y61290D3*X14332Y59954D3*X13190Y61512D3*X14880Y60230D3*X13802Y60140D3*X14112Y60511D3*X13250Y63000D3*X13225Y66375D3*X15250Y69750D3*X14260Y68750D3*X14997Y71125D3*X13125Y71750D3*X14552Y73028D3*X13094Y72750D3*X14500Y73750D3*Y75000D3*X13625Y73375D3*X14997Y77750D3*X16000Y53470D3*Y58250D3*X17001Y59500D3*X16520Y62500D3*X15973Y67000D3*X16425Y72075D3*X16700Y73530D3*X20125Y46750D3*X19250Y51625D3*X19125Y54000D3*X20000Y56375D3*X20375Y54625D3*X18463Y55290D3*X20875Y57875D3*X18445D3*X21000Y57125D3*X20500Y61327D3*X18499Y60250D3*X21000Y60875D3*X20250D3*X19625Y63625D3*X18625Y79000D3*X22750Y43500D3*Y46250D3*Y45000D3*Y48750D3*Y47500D3*X21875Y51500D3*X22750Y50000D3*X22875Y52250D3*X21103Y52750D3*X23500Y56025D3*X22375Y57500D3*X21735Y59625D3*X21750Y60600D3*X23000Y61250D3*X22750Y79000D3*X25625Y45375D3*X25000Y48625D3*X25125Y49625D3*X26000Y53750D3*X24250Y53499D3*X25125Y53500D3*X26000Y55125D3*X24210Y56690D3*X24155Y59000D3*X25500Y58375D3*X24125Y60125D3*X26375Y80375D3*X26750Y43500D3*Y53625D3*X26909Y69500D3*X27125Y73625D3*X28750Y75750D3*Y75000D3*X28254Y77500D3*X28750Y76500D3*X30909Y69500D3*X29646Y72833D3*X31625Y70750D3*X31000D3*X31500Y78000D3*X30750D3*X30000D3*X29250D3*X30500Y79500D3*X32375Y70750D3*X33250Y75000D3*Y75750D3*Y76500D3*X32375Y80000D3*X33500D3*X31875Y80500D3*X34000D3*X33625Y81750D3*X32375D3*X31875Y81250D3*X34000D3*X34750Y77750D3*X35266D3*X34750Y79250D3*X39500Y63750D3*X39750Y71900D3*X42250Y45125D3*X42000Y47500D3*X42094Y49875D3*X42170Y53495D3*X41625Y54250D3*X41000Y54781D3*Y73250D3*X40375Y79125D3*X42625Y43500D3*Y45875D3*Y48250D3*Y50625D3*X45000Y68500D3*X43159D3*X44500Y72000D3*X42909Y73750D3*X44000Y76750D3*X46660Y58400D3*X46050Y59970D3*X46750Y59875D3*X45625Y63375D3*X46327Y67848D3*X47610Y67875D3*X46930Y68048D3*X48500Y57750D3*X48309Y63190D3*Y64750D3*X50000Y64250D3*X48125Y66500D3*X50000Y66875D3*X49700Y68310D3*X48000Y68000D3*X49400Y67900D3*X48332Y72315D3*X47866Y71741D3*X50292Y71154D3*X48081Y73783D3*X48250Y80750D3*X49250Y81147D3*X49000Y79125D3*X52250Y43500D3*Y56125D3*X50930Y62840D3*X51625Y64125D3*Y64875D3*X50732Y65625D3*X51625D3*X50625Y72625D3*X50553Y71875D3*X50625Y76750D3*X55250Y49750D3*Y51000D3*X53250D3*Y49750D3*X53750Y49500D3*X54750D3*X53750Y51500D3*X54750D3*X58159Y48500D3*X61000Y61250D3*X59500Y60000D3*X61909Y47500D3*Y51000D3*Y49250D3*X63750D3*X61909Y52750D3*X62449Y54050D3*X62800Y56920D3*X62750Y55375D3*X63000Y59347D3*X62799Y59000D3*X62780Y58000D3*X61750Y58500D3*X63113Y59887D3*X62669Y60875D3*X62270Y60280D3*X63260Y60460D3*X61551Y60396D3*X62500Y63625D3*X63604Y65720D3*X63557Y67567D3*X62160Y68960D3*X61850Y73000D3*X61250Y75500D3*X61875Y77625D3*X63124Y80191D3*X61625Y79000D3*X64000Y56125D3*X64750Y63470D3*Y66250D3*X66125Y66375D3*X66250Y69500D3*X65936Y67828D3*X65454Y68169D3*X66150Y70050D3*X64884Y68000D3*X63860Y68094D3*X66092Y72362D3*X65750Y71750D3*X63860Y72375D3*X64410Y74090D3*X66000Y75625D3*X66200Y74700D3*X66000Y77875D3*X67750Y59500D3*X67328Y59600D3*X67500Y57750D3*X67270Y60700D3*X68290Y61023D3*X66652Y60972D3*X67880Y61290D3*X67832Y59954D3*X66690Y61512D3*X68380Y60230D3*X67302Y60140D3*X67612Y60511D3*X66750Y63000D3*X66725Y66375D3*X68750Y69750D3*X67760Y68750D3*X68497Y71125D3*X66625Y71750D3*X68052Y73028D3*X66594Y72750D3*X68000Y73750D3*Y75000D3*X67125Y73375D3*X68497Y77750D3*X69500Y53470D3*Y58250D3*X70501Y59500D3*X70020Y62500D3*X69473Y67000D3*X69925Y72075D3*X70200Y73530D3*X73625Y46750D3*X72750Y51625D3*X72625Y54000D3*X73500Y56375D3*X73875Y54625D3*X71963Y55290D3*X74375Y57875D3*X71945D3*X74500Y57125D3*X74000Y61327D3*X71999Y60250D3*X74500Y60875D3*X73750D3*X73125Y63625D3*X72125Y79000D3*X76250Y43500D3*Y46250D3*Y45000D3*Y48750D3*Y47500D3*X75375Y51500D3*X76250Y50000D3*X76375Y52250D3*X74603Y52750D3*X77000Y56025D3*X75875Y57500D3*X75235Y59625D3*X75250Y60600D3*X76500Y61250D3*X76250Y79000D3*X79125Y45375D3*X78500Y48625D3*X78625Y49625D3*X79500Y53750D3*X77750Y53499D3*X78625Y53500D3*X79500Y55125D3*X77710Y56690D3*X77655Y59000D3*X79000Y58375D3*X77625Y60125D3*X79875Y80375D3*X80250Y43500D3*Y53625D3*X80409Y69500D3*X80625Y73625D3*X82250Y75750D3*Y75000D3*X81754Y77500D3*X82250Y76500D3*X84409Y69500D3*X83146Y72833D3*X85125Y70750D3*X84500D3*X85000Y78000D3*X84250D3*X83500D3*X82750D3*X84000Y79500D3*X85875Y70750D3*X86750Y75000D3*Y75750D3*Y76500D3*X85875Y80000D3*X87000D3*X85375Y80500D3*X87500D3*X87125Y81750D3*X85875D3*X85375Y81250D3*X87500D3*X88250Y77750D3*X88766D3*X88250Y79250D3*X93000Y63750D3*X93250Y71900D3*X95750Y45125D3*X95500Y47500D3*X95594Y49875D3*X95670Y53495D3*X95125Y54250D3*X94500Y54781D3*Y73250D3*X93875Y79125D3*X96125Y43500D3*Y45875D3*Y48250D3*Y50625D3*X98500Y68500D3*X96659D3*X98000Y72000D3*X96409Y73750D3*X97500Y76750D3*X100160Y58400D3*X99550Y59970D3*X100250Y59875D3*X99125Y63375D3*X99827Y67848D3*X101110Y67875D3*X100430Y68048D3*X102000Y57750D3*X101809Y63190D3*Y64750D3*X103500Y64250D3*X101625Y66500D3*X103500Y66875D3*X103200Y68310D3*X101500Y68000D3*X102900Y67900D3*X101832Y72315D3*X101366Y71741D3*X103792Y71154D3*X101581Y73783D3*X101750Y80750D3*X102750Y81147D3*X102500Y79125D3*X105750Y43500D3*Y56125D3*X104430Y62840D3*X105125Y64125D3*Y64875D3*X104232Y65625D3*X105125D3*X104125Y72625D3*X104053Y71875D3*X104125Y76750D3*X108750Y49750D3*Y51000D3*X106750D3*Y49750D3*X107250Y49500D3*X108250D3*X107250Y51500D3*X108250D3*X58159Y8500D3*X61000Y21250D3*X59500Y20000D3*X61909Y7500D3*Y11000D3*Y9250D3*X63750D3*X61909Y12750D3*X62449Y14050D3*X62800Y16920D3*X62750Y15375D3*X63000Y19347D3*X62799Y19000D3*X62780Y18000D3*X61750Y18500D3*X63113Y19887D3*X62669Y20875D3*X62270Y20280D3*X63260Y20460D3*X61551Y20396D3*X62500Y23625D3*X63604Y25720D3*X63557Y27567D3*X62160Y28960D3*X61850Y33000D3*X61250Y35500D3*X61875Y37625D3*X63124Y40191D3*X61625Y39000D3*X64000Y16125D3*X64750Y23470D3*Y26250D3*X66125Y26375D3*X66250Y29500D3*X65936Y27828D3*X65454Y28169D3*X66150Y30050D3*X64884Y28000D3*X63860Y28094D3*X66092Y32362D3*X65750Y31750D3*X63860Y32375D3*X64410Y34090D3*X66000Y35625D3*X66200Y34700D3*X66000Y37875D3*X67750Y19500D3*X67328Y19600D3*X67500Y17750D3*X67270Y20700D3*X68290Y21023D3*X66652Y20972D3*X67880Y21290D3*X67832Y19954D3*X66690Y21512D3*X68380Y20230D3*X67302Y20140D3*X67612Y20511D3*X66750Y23000D3*X66725Y26375D3*X68750Y29750D3*X67760Y28750D3*X68497Y31125D3*X66625Y31750D3*X68052Y33028D3*X66594Y32750D3*X68000Y33750D3*Y35000D3*X67125Y33375D3*X68497Y37750D3*X69500Y13470D3*Y18250D3*X70501Y19500D3*X70020Y22500D3*X69473Y27000D3*X69925Y32075D3*X70200Y33530D3*X73625Y6750D3*X72750Y11625D3*X72625Y14000D3*X73500Y16375D3*X73875Y14625D3*X71963Y15290D3*X74375Y17875D3*X71945D3*X74500Y17125D3*X74000Y21327D3*X71999Y20250D3*X74500Y20875D3*X73750D3*X73125Y23625D3*X72125Y39000D3*X76250Y3500D3*Y6250D3*Y5000D3*Y8750D3*Y7500D3*X75375Y11500D3*X76250Y10000D3*X76375Y12250D3*X74603Y12750D3*X77000Y16025D3*X75875Y17500D3*X75235Y19625D3*X75250Y20600D3*X76500Y21250D3*X76250Y39000D3*X79125Y5375D3*X78500Y8625D3*X78625Y9625D3*X79500Y13750D3*X77750Y13499D3*X78625Y13500D3*X79500Y15125D3*X77710Y16690D3*X77655Y19000D3*X79000Y18375D3*X77625Y20125D3*X79875Y40375D3*X80250Y3500D3*Y13625D3*X80409Y29500D3*X80625Y33625D3*X82250Y35750D3*Y35000D3*X81754Y37500D3*X82250Y36500D3*X84409Y29500D3*X83146Y32833D3*X85125Y30750D3*X84500D3*X85000Y38000D3*X84250D3*X83500D3*X82750D3*X84000Y39500D3*X85875Y30750D3*X86750Y35000D3*Y35750D3*Y36500D3*X85875Y40000D3*X87000D3*X85375Y40500D3*X87500D3*X87125Y41750D3*X85875D3*X85375Y41250D3*X87500D3*X88250Y37750D3*X88766D3*X88250Y39250D3*X93000Y23750D3*X93250Y31900D3*X95750Y5125D3*X95500Y7500D3*X95594Y9875D3*X95670Y13495D3*X95125Y14250D3*X94500Y14781D3*Y33250D3*X93875Y39125D3*X96125Y3500D3*Y5875D3*Y8250D3*Y10625D3*X98500Y28500D3*X96659D3*X98000Y32000D3*X96409Y33750D3*X97500Y36750D3*X100160Y18400D3*X99550Y19970D3*X100250Y19875D3*X99125Y23375D3*X99827Y27848D3*X101110Y27875D3*X100430Y28048D3*X102000Y17750D3*X101809Y23190D3*Y24750D3*X103500Y24250D3*X101625Y26500D3*X103500Y26875D3*X103200Y28310D3*X101500Y28000D3*X102900Y27900D3*X101832Y32315D3*X101366Y31741D3*X103792Y31154D3*X101581Y33783D3*X101750Y40750D3*X102750Y41147D3*X102500Y39125D3*X105750Y3500D3*Y16125D3*X104430Y22840D3*X105125Y24125D3*Y24875D3*X104232Y25625D3*X105125D3*X104125Y32625D3*X104053Y31875D3*X104125Y36750D3*X108750Y9750D3*Y11000D3*X106750D3*Y9750D3*X107250Y9500D3*X108250D3*X107250Y11500D3*X108250D3*X4659Y8500D3*X7500Y21250D3*X6000Y20000D3*X8409Y7500D3*Y11000D3*Y9250D3*X10250D3*X8409Y12750D3*X8949Y14050D3*X9300Y16920D3*X9250Y15375D3*X9500Y19347D3*X9299Y19000D3*X9280Y18000D3*X8250Y18500D3*X9613Y19887D3*X9169Y20875D3*X8770Y20280D3*X9760Y20460D3*X8051Y20396D3*X9000Y23625D3*X10104Y25720D3*X10057Y27567D3*X8660Y28960D3*X8350Y33000D3*X7750Y35500D3*X8375Y37625D3*X9624Y40191D3*X8125Y39000D3*X10500Y16125D3*X11250Y23470D3*Y26250D3*X12625Y26375D3*X12750Y29500D3*X12436Y27828D3*X11954Y28169D3*X12650Y30050D3*X11384Y28000D3*X10360Y28094D3*X12592Y32362D3*X12250Y31750D3*X10360Y32375D3*X10910Y34090D3*X12500Y35625D3*X12700Y34700D3*X12500Y37875D3*X14250Y19500D3*X13828Y19600D3*X14000Y17750D3*X13770Y20700D3*X14790Y21023D3*X13152Y20972D3*X14380Y21290D3*X14332Y19954D3*X13190Y21512D3*X14880Y20230D3*X13802Y20140D3*X14112Y20511D3*X13250Y23000D3*X13225Y26375D3*X15250Y29750D3*X14260Y28750D3*X14997Y31125D3*X13125Y31750D3*X14552Y33028D3*X13094Y32750D3*X14500Y33750D3*Y35000D3*X13625Y33375D3*X14997Y37750D3*X16000Y13470D3*Y18250D3*X17001Y19500D3*X16520Y22500D3*X15973Y27000D3*X16425Y32075D3*X16700Y33530D3*X20125Y6750D3*X19250Y11625D3*X19125Y14000D3*X20000Y16375D3*X20375Y14625D3*X18463Y15290D3*X20875Y17875D3*X18445D3*X21000Y17125D3*X20500Y21327D3*X18499Y20250D3*X21000Y20875D3*X20250D3*X19625Y23625D3*X18625Y39000D3*X22750Y3500D3*Y6250D3*Y5000D3*Y8750D3*Y7500D3*X21875Y11500D3*X22750Y10000D3*X22875Y12250D3*X21103Y12750D3*X23500Y16025D3*X22375Y17500D3*X21735Y19625D3*X21750Y20600D3*X23000Y21250D3*X22750Y39000D3*X25625Y5375D3*X25000Y8625D3*X25125Y9625D3*X26000Y13750D3*X24250Y13499D3*X25125Y13500D3*X26000Y15125D3*X24210Y16690D3*X24155Y19000D3*X25500Y18375D3*X24125Y20125D3*X26375Y40375D3*X26750Y3500D3*Y13625D3*X26909Y29500D3*X27125Y33625D3*X28750Y35750D3*Y35000D3*X28254Y37500D3*X28750Y36500D3*X30909Y29500D3*X29646Y32833D3*X31625Y30750D3*X31000D3*X31500Y38000D3*X30750D3*X30000D3*X29250D3*X30500Y39500D3*X32375Y30750D3*X33250Y35000D3*Y35750D3*Y36500D3*X32375Y40000D3*X33500D3*X31875Y40500D3*X34000D3*X33625Y41750D3*X32375D3*X31875Y41250D3*X34000D3*X34750Y37750D3*X35266D3*X34750Y39250D3*X39500Y23750D3*X39750Y31900D3*X42250Y5125D3*X42000Y7500D3*X42094Y9875D3*X42170Y13495D3*X41625Y14250D3*X41000Y14781D3*Y33250D3*X40375Y39125D3*X42625Y3500D3*Y5875D3*Y8250D3*Y10625D3*X45000Y28500D3*X43159D3*X44500Y32000D3*X42909Y33750D3*X44000Y36750D3*X46660Y18400D3*X46050Y19970D3*X46750Y19875D3*X45625Y23375D3*X46327Y27848D3*X47610Y27875D3*X46930Y28048D3*X48500Y17750D3*X48309Y23190D3*Y24750D3*X50000Y24250D3*X48125Y26500D3*X50000Y26875D3*X49700Y28310D3*X48000Y28000D3*X49400Y27900D3*X48332Y32315D3*X47866Y31741D3*X50292Y31154D3*X48081Y33783D3*X48250Y40750D3*X49250Y41147D3*X49000Y39125D3*X52250Y3500D3*Y16125D3*X50930Y22840D3*X51625Y24125D3*Y24875D3*X50732Y25625D3*X51625D3*X50625Y32625D3*X50553Y31875D3*X50625Y36750D3*X55250Y9750D3*Y11000D3*X53250D3*Y9750D3*X53750Y9500D3*X54750D3*X53750Y11500D3*X54750D3*D141*X4500Y44500D3*Y80500D3*X54000Y44500D3*Y80500D3*X58000Y44500D3*Y80500D3*X107500Y44500D3*Y80500D3*X58000Y4500D3*Y40500D3*X107500Y4500D3*Y40500D3*X4500Y4500D3*Y40500D3*X54000Y4500D3*Y40500D3*D153*X14500Y48250D3*X68000D3*Y8250D3*X14500D3*D156*X11200Y46250D3*Y50250D3*X17800Y46250D3*Y50250D3*X64700Y46250D3*Y50250D3*X71300Y46250D3*Y50250D3*X64700Y6250D3*Y10250D3*X71300Y6250D3*Y10250D3*X11200Y6250D3*Y10250D3*X17800Y6250D3*Y10250D3*X0Y0D2*M02*