*%FSLAX24Y24*%
%MOIN*%
%IPPOS*%
%ADD10C,0.2X0.158*%
%ADD11C,0.024*%
%ADD12C,0.063*%
%ADD13R,0.063X0.063*%
%ADD14C,0.07*%
%ADD15R,0.07X0.07*%
%ADD16C,0.12*%
%ADD17R,0.0374X0.0516*%
%ADD18C,0.08*%
%ADD19R,0.0516X0.0374*%
%ADD20R,0.0406X0.0744*%
%ADD21R,0.028X0.0146*%
%ADD22R,0.076X0.0189*%
%ADD23C,0.02*%
%ADD24R,0.0839X0.0303*%
%ADD25R,0.2165X0.1142*%
%ADD26R,0.0158X0.0575*%
%ADD27R,0.026X0.0516*%
%ADD28R,0.1638X0.0835*%
%ADD29O,0.11X0.141*%
%ADD30C,0.062*%
%ADD31R,0.0476X0.0697*%
%ADD32C,0.074X0.066*%
%ADD33R,0.0516X0.026*%
%ADD34R,0.0594X0.0161*%
%ADD35C,0.04*%
%ADD36R,0.0516X0.0161*%
%ADD37R,0.0299X0.0535*%
%ADD38R,0.0535X0.0299*%
%ADD39R,0.0303X0.0362*%
%ADD40R,0.061X0.1382*%
%ADD41R,0.0402X0.0406*%
%ADD42R,0.083X0.079*%
%ADD43R,0.016X0.053*%
%ADD44R,0.063X0.075*%
%ADD45R,0.3555X0.3173*%
%ADD46R,0.0362X0.0697*%
%ADD47C,0.01*%
%ADD48C,0.02*%
%ADD49C,0.03*%
%ADD50C,0.05*%
%ADD51C,0.015*%
%ADD52C,0.025*%
%ADD53C,0.016*%
%ADD54C,0.018*%
%ADD55C,0.075*%
%ADD56C,0.1*%
%ADD57C,0.007*%
%ADD58C,0.008*%
%ADD59C,0.039*%
%ADD60C,0.22*%
%ADD61C,0.036*%
%AMD62*
1,1,0.09,0.0,0.0*
1,0,0.07,0.0,0.0*
20,0,0.015,0.0337,-0.0337,-0.0337,0.0337,0.0*
20,0,0.015,-0.0337,-0.0337,0.0337,0.0337,0.0*%
%ADD62D62*%
G04:---LTIenv:A062:5,0.09,0.015,0.07,4,45.0 *
%ADD63C,0.04*%
%AMD64*
1,1,0.082,0.0,0.0*
1,0,0.062,0.0,0.0*
20,0,0.015,0.0308,-0.0308,-0.0308,0.0308,0.0*
20,0,0.015,-0.0308,-0.0308,0.0308,0.0308,0.0*%
%ADD64D64*%
G04:---LTIenv:A064:5,0.082,0.015,0.062,4,45.0 *
%ADD65C,0.15*%
%ADD66C,0.05*%
%ADD67R,0.25X0.25*%
%ADD68C,0.1*%
%AMD69*
1,1,0.1,0.0,0.0*
1,0,0.0875,0.0,0.0*
1,1,0.05,0.0,0.0*
1,0,0.0375,0.0,0.0*
20,1,0.0062,0.0,-0.0969,0.0,0.0969,0.0*
20,1,0.0062,-0.0969,0.0,0.0969,0.0,0.0*%
%ADD69D69*%
G04:---LTIenv:A069:6,0.2,6 *
%ADD100C,0.04*%
%ADD101C,0.062*%
%ADD104C,0.02*%
%ADD105C,0.01*%
%ADD106C,0.02*%
%ADD107C,0.03*%
%ADD108C,0.05*%
%ADD109C,0.1*%
%ADD110C,0.026*%
%ADD117C,0.026*%
%ADD118R,0.042X0.076*%
%ADD119R,0.362X0.323*%
%ADD120C,0.08*%
%ADD121C,0.056*%
%ADD122C,0.085*%
%ADD123C,0.078*%
%ADD124C,0.094*%
%AMD125*
1,1,0.084,0.0,0.0*
1,0,0.064,0.0,0.0*
20,0,0.015,0.0315,-0.0315,-0.0315,0.0315,0.0*
20,0,0.015,-0.0315,-0.0315,0.0315,0.0315,0.0*%
%ADD125D125*%
G04:---LTIenv:A125:5,0.084,0.015,0.064,4,45.0 *
%ADD126O,0.125X0.154*%
%ADD127R,0.069X0.081*%
%ADD128C,0.135*%
%ADD131C,0.068*%
%ADD132C,0.046*%
%ADD135C,0.126*%
%ADD136R,0.076X0.076*%
%ADD137C,0.076*%
%ADD138R,0.069X0.069*%
%ADD139C,0.069*%
%ADD140C,0.03*%
%ADD141C,0.206*%
%ADD142R,0.02X0.057*%
%ADD143R,0.089X0.085*%
%ADD144R,0.046X0.047*%
%ADD145R,0.067X0.144*%
%ADD146R,0.036X0.042*%
%ADD147R,0.06X0.036*%
%ADD148R,0.036X0.06*%
%ADD149R,0.056X0.02*%
%ADD150C,0.046*%
%ADD151R,0.063X0.02*%
%ADD152R,0.058X0.032*%
%ADD153C,0.08*%
%ADD154R,0.054X0.076*%
%ADD155C,0.068*%
%ADD156O,0.116X0.147*%
%ADD157R,0.17X0.09*%
%ADD158R,0.032X0.058*%
%ADD159R,0.02X0.062*%
%ADD160R,0.223X0.12*%
%ADD161R,0.087X0.0325*%
%ADD162R,0.078X0.02*%
%ADD163R,0.034X0.021*%
%ADD164R,0.047X0.08*%
%ADD165R,0.058X0.043*%
%ADD166C,0.086*%
%ADD167R,0.043X0.058*%
%ADD168C,0.126*%
%ADD169R,0.076X0.076*%
%ADD170C,0.076*%
%ADD171R,0.069X0.069*%
%ADD172C,0.069*%
%ADD173C,0.03*%
%ADD174C,0.206*%
%ADD200C,0.002*%
%ADD901C,0.01*%
G04:---LTIenv:A901:15,0.01,1 *
%ADD902C,0.013*%
G04:---LTIenv:A902:15,0.013,2 *
%ADD903C,0.028*%
G04:---LTIenv:A903:15,0.028,3 *
%ADD904C,0.042*%
G04:---LTIenv:A904:15,0.042,4 *
%ADD905C,0.044*%
G04:---LTIenv:A905:15,0.044,5 *
%ADD906C,0.05*%
G04:---LTIenv:A906:15,0.05,6 *
%ADD907C,0.067*%
G04:---LTIenv:A907:15,0.067,7 *
%ADD908C,0.064*%
G04:---LTIenv:A908:15,0.064,8 *
%ADD909C,0.156*%
G04:---LTIenv:A909:15,0.156,9 *
%ADD910C,0.07*%
G04:---LTIenv:A910:15,0.07,10 *
%ADD911C,0.125*%
G04:---LTIenv:A911:15,0.125,11 *

%LPD*%
D58*X151Y-3615D2*X869Y-4266D1*X151D2*X869Y-3615D1*X151Y-3945D2*X869D1*X510Y-4266D2*Y-3615D1*X1172D2*X1890Y-4266D1*X1172D2*X1890Y-3615D1*X1172Y-3945D2*X1890D1*X1531Y-4266D2*Y-3615D1*X3931Y-3246D2*Y-4446D1*X3241Y-3246*Y-4446*X4271Y-3756D2*X4932D1*Y-3246D2*X4271D1*Y-4446*X4932*X5291Y-3756D2*X5953D1*Y-3246D2*X5291D1*Y-4446*X5953*X6803D2*X6983Y-4266D1*Y-3435*X6803Y-3246*X6293*Y-4446*X6803*X9061Y-3246D2*Y-4266D1*X8882Y-4446*X8523*X8343Y-4266*Y-3246*X10035Y-4446D2*X9383D1*Y-3246*X12076Y-4446D2*X11424D1*Y-3246*X12416Y-3435D2*Y-4266D1*X12595Y-4446*X12954*X13134Y-4266*Y-3435*X12954Y-3246*X12595*X12416Y-3435*X13776Y-3907D2*X14107D1*Y-4446*X13625*X13446Y-4266*Y-3435*X13625Y-3246*X14107*X14457Y-3435D2*Y-4266D1*X14636Y-4446*X14995*X15175Y-4266*Y-3435*X14995Y-3246*X14636*X14457Y-3435*X17169Y-4446D2*X16450Y-3615D1*Y-3435*X16649Y-3246*X16838Y-3435*Y-3615*X16450Y-3907*Y-4266*X16630Y-4446*X16809*X16989Y-4304*Y-4125*X17169Y-3945*X19049Y-4446D2*X19228Y-4266D1*Y-3435*X19049Y-3246*X18539*Y-4446*X19049*X19559Y-3907D2*X20249D1*Y-4446D2*Y-3435D1*X20069Y-3246*X19739*X19559Y-3435*Y-4446*X20957D2*Y-3246D1*X20598D2*X21317D1*X21619Y-3756D2*X22280D1*Y-3246D2*X21619D1*Y-4446*X22280*X24340D2*X23802D1*X23622Y-4266*Y-3435*X23802Y-3246*X24340*X24661Y-3435D2*Y-4266D1*X24841Y-4446*X25200*X25380Y-4266*Y-3435*X25200Y-3246*X24841*X24661Y-3435*X26192Y-4446D2*X26372Y-4266D1*Y-3435*X26192Y-3246*X25682*Y-4446*X26192*X26721Y-3756D2*X27383D1*Y-3246D2*X26721D1*Y-4446*X27383*X151Y-5145D2*X869Y-5797D1*X151D2*X869Y-5145D1*X151Y-5476D2*X869D1*X510Y-5797D2*Y-5145D1*X1172D2*X1890Y-5797D1*X1172D2*X1890Y-5145D1*X1172Y-5476D2*X1890D1*X1531Y-5797D2*Y-5145D1*X3940Y-5618D2*X3250D1*X3761Y-4777*Y-5977*X4271Y-5476D2*X4932D1*X6000Y-4777D2*Y-5797D1*X5820Y-5977*X5461*X5282Y-5797*Y-4777*X6312Y-5287D2*X6822D1*X7002Y-5107*Y-4966*X6822Y-4777*X6312*Y-5977*X8353Y-5287D2*X8863D1*X9043Y-5107*Y-4966*X8863Y-4777*X8353*Y-5977*X9373Y-5287D2*X10035D1*Y-4777D2*X9373D1*Y-5977*X10035*X10706Y-5325D2*X11065Y-5977D1*X10413Y-5325D2*X10885D1*X11065Y-5145*Y-4966*X10885Y-4777*X10413*Y-5977*X12435Y-5287D2*X12945D1*X13124Y-5107*Y-4966*X12945Y-4777*X12435*Y-5977*X13436Y-5438D2*X14126D1*Y-5977D2*Y-4966D1*X13946Y-4777*X13616*X13436Y-4966*Y-5977*X15156Y-4777D2*Y-5977D1*X14466Y-4777*Y-5977*X15496Y-5287D2*X16157D1*Y-4777D2*X15496D1*Y-5977*X16157*X17178D2*X16526D1*Y-4777*X19247D2*X19096Y-5977D1*X18917Y-5259*X18737Y-5977*X18557Y-4777*X19550Y-5977D2*X19909D1*X19729D2*Y-4777D1*X19550D2*X19909D1*X20957Y-5977D2*Y-4777D1*X20598D2*X21317D1*X21600Y-5287D2*X22290D1*Y-5977D2*Y-4777D1*X21600Y-5977D2*Y-4777D1*X23669Y-5977D2*X24151D1*X24331Y-5797*Y-5438*X24151Y-5259*X23849*X23669Y-5079*Y-4966*X23849Y-4777*X24331*X25361Y-5977D2*X24822D1*X24643Y-5797*Y-4966*X24822Y-4777*X25361*X25682Y-4966D2*Y-5797D1*X25861Y-5977*X26220*X26400Y-5797*Y-4966*X26220Y-4777*X25861*X25682Y-4966*X27033Y-5325D2*X27392Y-5977D1*X26740Y-5325D2*X27213D1*X27392Y-5145*Y-4966*X27213Y-4777*X26740*Y-5977*X27713D2*X28072D1*X27893D2*Y-4777D1*X27713D2*X28072D1*X29443D2*Y-5977D1*X28753Y-4777*Y-5977*X30104Y-5438D2*X30435D1*Y-5977*X29953*X29773Y-5797*Y-4966*X29953Y-4777*X30435*X151Y-6676D2*X869Y-7328D1*X151D2*X869Y-6676D1*X151Y-7007D2*X869D1*X510Y-7328D2*Y-6676D1*X1172D2*X1890Y-7328D1*X1172D2*X1890Y-6676D1*X1172Y-7007D2*X1890D1*X1531Y-7328D2*Y-6676D1*X3222Y-7507D2*X3581D1*X3402D2*Y-6307D1*X3222D2*X3581D1*X4932Y-7507D2*Y-6307D1*X4602Y-6969*X4271Y-6307*Y-7507*X5953D2*Y-6307D1*X5622Y-6969*X5291Y-6307*Y-7507*X6312Y-6818D2*X6973D1*Y-6307D2*X6312D1*Y-7507*X6973*X7644Y-6855D2*X8003Y-7507D1*X7351Y-6855D2*X7824D1*X8003Y-6676*Y-6496*X7824Y-6307*X7351*Y-7507*X8362D2*X8844D1*X9024Y-7328*Y-6969*X8844Y-6789*X8542*X8362Y-6610*Y-6496*X8542Y-6307*X9024*X9345Y-7507D2*X9704D1*X9524D2*Y-6307D1*X9345D2*X9704D1*X10375Y-6496D2*Y-7328D1*X10554Y-7507*X10913*X11093Y-7328*Y-6496*X10913Y-6307*X10554*X10375Y-6496*X12094Y-6307D2*Y-7507D1*X11405Y-6307*Y-7507*X13776Y-6969D2*X14107D1*Y-7507*X13625*X13446Y-7328*Y-6496*X13625Y-6307*X14107*X14457Y-6496D2*Y-7328D1*X14636Y-7507*X14995*X15175Y-7328*Y-6496*X14995Y-6307*X14636*X14457Y-6496*X16157Y-7507D2*X15506D1*Y-6307*X17008Y-7507D2*X17187Y-7328D1*Y-6496*X17008Y-6307*X16498*Y-7507*X17008*X151Y-8207D2*X869Y-8859D1*X151D2*X869Y-8207D1*X151Y-8537D2*X869D1*X510Y-8859D2*Y-8207D1*X1172D2*X1890Y-8859D1*X1172D2*X1890Y-8207D1*X1172Y-8537D2*X1890D1*X1531Y-8859D2*Y-8207D1*X3392Y-9038D2*X3751D1*X3572D2*Y-7838D1*X3392Y-8027*X4252Y-8348D2*X4791D1*X4970Y-8537*Y-8859*X4791Y-9038*X4431*X4252Y-8802*Y-8027*X4431Y-7838*X4791*X4970Y-8027*X6312Y-8348D2*X6822D1*X7002Y-8169*Y-8027*X6822Y-7838*X6312*Y-9038*X7994D2*X7342D1*Y-7838*X8334Y-8500D2*X9024D1*Y-9038D2*Y-8027D1*X8844Y-7838*X8513*X8334Y-8027*Y-9038*X9732D2*Y-7838D1*X9373D2*X10091D1*X10394Y-8348D2*X11055D1*Y-7838D2*X10394D1*Y-9038*X11055*X11906D2*X12085Y-8859D1*Y-8027*X11906Y-7838*X11395*Y-9038*X11906*X13465D2*X13946D1*X14126Y-8859*Y-8500*X13946Y-8320*X13644*X13465Y-8140*Y-8027*X13644Y-7838*X14126*X15137Y-9038D2*X14485D1*Y-7838*X15477Y-8027D2*Y-8859D1*X15657Y-9038*X16016*X16195Y-8859*Y-8027*X16016Y-7838*X15657*X15477Y-8027*X16876Y-9038D2*Y-7838D1*X16517D2*X17235D1*X17546Y-9038D2*X18028D1*X18208Y-8859*Y-8500*X18028Y-8320*X17726*X17546Y-8140*Y-8027*X17726Y-7838*X18208*X151Y-9737D2*X869Y-10389D1*X151D2*X869Y-9737D1*X151Y-10068D2*X869D1*X510Y-10389D2*Y-9737D1*X1172D2*X1890Y-10389D1*X1172D2*X1890Y-9737D1*X1172Y-10068D2*X1890D1*X1531Y-10389D2*Y-9737D1*X3609Y-10569D2*Y-9369D1*X3250D2*X3969D1*X4271Y-9879D2*X4932D1*Y-9369D2*X4271D1*Y-10569*X4932*X5301D2*X5783D1*X5962Y-10389*Y-10030*X5783Y-9851*X5480*X5301Y-9671*Y-9558*X5480Y-9369*X5962*X6671Y-10569D2*Y-9369D1*X6312D2*X7030D1*X7304Y-10569D2*X7663D1*X7483D2*Y-9369D1*X7304D2*X7663D1*X9033D2*Y-10569D1*X8343Y-9369*Y-10569*X9694Y-10030D2*X10025D1*Y-10569*X9543*X9364Y-10389*Y-9558*X9543Y-9369*X10025*X11726Y-9917D2*X12085Y-10569D1*X11433Y-9917D2*X11906D1*X12085Y-9737*Y-9558*X11906Y-9369*X11433*Y-10569*X12435Y-9879D2*X13096D1*Y-9369D2*X12435D1*Y-10569*X13096*X13776Y-10210D2*X14135Y-10569D1*X13625Y-9369D2*X13446Y-9558D1*Y-10389*X13625Y-10569*X13956*X14135Y-10389*Y-9558*X13956Y-9369*X13625*X15184D2*Y-10389D1*X15005Y-10569*X14646*X14466Y-10389*Y-9369*X15468Y-10569D2*X15827D1*X15647D2*Y-9369D1*X15468D2*X15827D1*X16828Y-9917D2*X17187Y-10569D1*X16535Y-9917D2*X17008D1*X17187Y-9737*Y-9558*X17008Y-9369*X16535*Y-10569*X17537Y-9879D2*X18198D1*Y-9369D2*X17537D1*Y-10569*X18198*X19049D2*X19228Y-10389D1*Y-9558*X19049Y-9369*X18539*Y-10569*X19049*X56295Y-1904D2*Y-2735D1*X56475Y-2915*X56834*X57013Y-2735*Y-1904*X56834Y-1715*X56475*X56295Y-1904*X58043Y-1715D2*Y-2735D1*X57864Y-2915*X57505*X57325Y-2735*Y-1715*X58714Y-2915D2*Y-1715D1*X58355D2*X59073D1*X60037Y-2915D2*X59385D1*Y-1715*X60368Y-2915D2*X60727D1*X60547D2*Y-1715D1*X60368D2*X60727D1*X62097D2*Y-2915D1*X61407Y-1715*Y-2915*X62437Y-2225D2*X63098D1*Y-1715D2*X62437D1*Y-2915*X63098*X109500Y0D2*Y85000D1*X56000Y0D2*Y85000D1*X2500Y0D2*Y85000D1*X0Y82500D2*X112000D1*X0Y42500D2*X112000D1*X0Y2500D2*X112000D1*X0Y0D2*Y85000D1*X112000*Y0*X0*X2500Y82500D2*Y42500D1*X56000*Y82500*X2500*X56000Y42500D2*X109500D1*Y82500*X56000*Y2500D2*X109500D1*Y42500*X2500D2*Y2500D1*X56000*Y42500*X0Y0D2*M02*